<?xml version="1.0" encoding="UTF-8" standalone="no"?>
<svg width="264px" height="80px" viewBox="0 0 264 80" version="1.1" xmlns="http://www.w3.org/2000/svg" xmlns:xlink="http://www.w3.org/1999/xlink" xmlns:sketch="http://www.bohemiancoding.com/sketch/ns">
    <!-- Generator: Sketch 3.3.3 (12072) - http://www.bohemiancoding.com/sketch -->
    <title>reebok_d_statusicon_delivered</title>
    <desc>Created with Sketch.</desc>
    <defs></defs>
    <g id="Page-1" stroke="none" stroke-width="1" fill="none" fill-rule="evenodd" sketch:type="MSPage">
        <g id="reebok_d_statusicon_delivered" sketch:type="MSArtboardGroup" fill="#727269">
            <path d="M131.5,34 C127.91,34 125,36.91 125,40.5 C125,44.09 127.91,47 131.5,47 C135.09,47 138,44.09 138,40.5 C138,36.91 135.09,34 131.5,34" id="Imported-Layers" sketch:type="MSShapeGroup"></path>
            <path d="M39.5,34 C35.91,34 33,36.91 33,40.5 C33,44.09 35.91,47 39.5,47 C43.09,47 46,44.09 46,40.5 C46,36.91 43.09,34 39.5,34" id="Imported-Layers" sketch:type="MSShapeGroup"></path>
            <path d="M226.25,9 C243.481,9 257.5,23.019 257.5,40.25 C257.5,57.481 243.481,71.5 226.25,71.5 C209.019,71.5 195,57.481 195,40.25 C195,23.019 209.019,9 226.25,9 M226.25,7 C207.887,7 193,21.887 193,40.25 C193,58.613 207.887,73.5 226.25,73.5 C244.613,73.5 259.5,58.613 259.5,40.25 C259.5,21.887 244.613,7 226.25,7" id="Imported-Layers" sketch:type="MSShapeGroup"></path>
            <path d="M133,39 L193,39 L193,41 L133,41 L133,39 Z" id="Fill-21-Copy" sketch:type="MSShapeGroup"></path>
            <path d="M45,39 L135,39 L135,41 L45,41 L45,39 Z" id="Fill-21-Copy-2" sketch:type="MSShapeGroup"></path>
            <g id="Imported-Layers" sketch:type="MSLayerGroup" transform="translate(206.000000, 21.000000)">
                <path d="M32.8792535,33.3906 C27.703507,33.3906 23.4931408,29.2194 23.4931408,24.093 C23.4931408,18.966 27.703507,14.7948 32.8792535,14.7948 C38.0537887,14.7948 42.2647606,18.966 42.2647606,24.093 C42.2647606,29.2194 38.0537887,33.3906 32.8792535,33.3906 M32.8792535,16.1382 C28.4514648,16.1382 24.8491549,19.7064 24.8491549,24.093 C24.8491549,28.4796 28.4514648,32.0472 32.8792535,32.0472 C37.3076479,32.0472 40.9093521,28.4796 40.9093521,24.093 C40.9093521,19.7064 37.3076479,16.1382 32.8792535,16.1382" id="Fill-1" sketch:type="MSShapeGroup"></path>
                <path d="M32.8792535,33.9906 C27.3698028,33.9906 22.887507,29.5512 22.887507,24.093 C22.887507,18.6354 27.3698028,14.1948 32.8792535,14.1948 C38.3887042,14.1948 42.8703944,18.6354 42.8703944,24.093 C42.8703944,29.5512 38.3887042,33.9906 32.8792535,33.9906 L32.8792535,33.9906 Z M32.8792535,15.3948 C28.0378169,15.3948 24.0987746,19.2972 24.0987746,24.093 C24.0987746,28.8888 28.0378169,32.7906 32.8792535,32.7906 C37.7206901,32.7906 41.6591268,28.8888 41.6591268,24.093 C41.6591268,19.2972 37.7206901,15.3948 32.8792535,15.3948 L32.8792535,15.3948 Z M32.8792535,32.6472 C28.1177606,32.6472 24.2435211,28.8102 24.2435211,24.093 C24.2435211,19.3764 28.1177606,15.5382 32.8792535,15.5382 C37.6407465,15.5382 41.5149859,19.3764 41.5149859,24.093 C41.5149859,28.8102 37.6407465,32.6472 32.8792535,32.6472 L32.8792535,32.6472 Z M32.8792535,16.7388 C28.7857746,16.7388 25.4547887,20.0382 25.4547887,24.093 C25.4547887,28.1484 28.7857746,31.4472 32.8792535,31.4472 C36.973338,31.4472 40.3037183,28.1484 40.3037183,24.093 C40.3037183,20.0382 36.973338,16.7388 32.8792535,16.7388 L32.8792535,16.7388 Z" id="Fill-2" sketch:type="MSShapeGroup"></path>
                <path d="M28.6803944,24.8286 L29.5300986,23.7798 L32.0767887,25.8006 L35.6197465,21.1446 L36.7026197,21.9534 L32.3184366,27.7146 L28.6803944,24.8286" id="Fill-3" sketch:type="MSShapeGroup"></path>
                <path d="M32.4268451,28.5696 L27.8288732,24.9216 L29.4362254,22.9368 L31.9683803,24.9462 L35.5004366,20.3046 L37.550507,21.8352 L32.4268451,28.5696 L32.4268451,28.5696 Z M29.5325211,24.7356 L32.2106338,26.8602 L35.8541268,22.0716 L35.7384507,21.9852 L32.1851972,26.655 L29.6239718,24.6228 L29.5325211,24.7356 L29.5325211,24.7356 Z" id="Fill-4" sketch:type="MSShapeGroup"></path>
                <path d="M17.1939437,1.1202 L0.905422535,7.0644 L0.905422535,25.479 L16.389662,34.989 L25.6382958,29.2998 L24.5784366,28.4262 L17.0873521,33.042 L17.0873521,15.6342 L32.3917183,9.2394 L32.3917183,13.8948 L33.7877042,13.8948 L33.7877042,7.7286 L17.1939437,1.1202 L17.1939437,1.1202 Z M17.1721408,2.6022 L23.177,4.9938 L9.23409859,10.7112 L3.32432394,7.6566 L17.1721408,2.6022 L17.1721408,2.6022 Z M15.6901549,32.9328 L2.30261972,24.7092 L2.30261972,8.688 L8.1663662,11.7192 L8.1663662,16.518 L9.56356338,17.2692 L9.56356338,12.441 L15.6901549,15.609 L15.6901549,32.9328 L15.6901549,32.9328 Z M16.4048028,14.4174 L10.8499296,11.5458 L25.0296338,5.7318 L31.2561549,8.2134 L16.4048028,14.4174 L16.4048028,14.4174 Z" id="Fill-5" sketch:type="MSShapeGroup"></path>
                <path d="M16.3902676,35.6952 L0.299788732,25.8132 L0.299788732,6.6462 L17.2030282,0.4776 L34.393338,7.323 L34.393338,14.4948 L31.7860845,14.4948 L31.7860845,10.1436 L17.6929859,16.032 L17.6929859,31.9626 L24.6299155,27.6876 L26.671507,29.3712 L16.3902676,35.6952 L16.3902676,35.6952 Z M1.51105634,25.1448 L16.389662,34.2834 L24.6056901,29.229 L24.5269577,29.1642 L16.4817183,34.122 L16.4817183,15.2358 L32.9973521,8.3358 L32.9973521,13.2948 L33.1820704,13.2948 L33.1820704,8.1342 L17.1842535,1.7634 L1.51105634,7.4832 L1.51105634,25.1448 L1.51105634,25.1448 Z M16.2957887,34.011 L1.69698592,25.0428 L1.69698592,7.698 L8.772,11.3556 L8.772,16.161 L8.95792958,16.2612 L8.95792958,11.451 L16.2957887,15.2454 L16.2957887,34.011 L16.2957887,34.011 Z M2.90825352,24.375 L15.0845211,31.8546 L15.0845211,15.9726 L10.1691972,13.431 L10.1691972,18.2778 L7.56073239,16.875 L7.56073239,12.0828 L2.90825352,9.6774 L2.90825352,24.375 L2.90825352,24.375 Z M16.3769437,15.0804 L9.41942254,11.4834 L25.0266056,5.0838 L32.8465493,8.2002 L16.3769437,15.0804 L16.3769437,15.0804 Z M12.2804366,11.6088 L16.4320563,13.755 L29.6663662,8.226 L25.032662,6.3798 L12.2804366,11.6088 L12.2804366,11.6088 Z M9.20442254,11.3724 L1.83204225,7.5618 L17.181831,1.9596 L24.7801127,4.986 L9.20442254,11.3724 L9.20442254,11.3724 Z M4.81721127,7.7508 L9.26377465,10.0494 L21.5732817,5.0016 L17.1630563,3.2448 L4.81721127,7.7508 L4.81721127,7.7508 Z" id="Fill-6" sketch:type="MSShapeGroup"></path>
            </g>
        </g>
    </g>
</svg>