<?xml version="1.0" encoding="UTF-8" standalone="no"?>
<svg width="99px" height="25px" viewBox="0 0 99 25" version="1.1" xmlns="http://www.w3.org/2000/svg" xmlns:xlink="http://www.w3.org/1999/xlink" xmlns:sketch="http://www.bohemiancoding.com/sketch/ns">
    <!-- Generator: Sketch 3.4.1 (15681) - http://www.bohemiancoding.com/sketch -->
    <title>Group 2 + Fill 8 + POWERED BY 2</title>
    <desc>Created with Sketch.</desc>
    <defs></defs>
    <g id="maintenance" stroke="none" stroke-width="1" fill="none" fill-rule="evenodd" sketch:type="MSPage">
        <g id="maintenance_tracking_d_background" sketch:type="MSArtboardGroup" transform="translate(0.000000, -620.000000)" fill="#CCCCCC">
            <g id="Group-2-+-Fill-8-+-POWERED-BY-2" sketch:type="MSLayerGroup" transform="translate(0.000000, 619.000000)">
                <g id="Group-2" transform="translate(28.000000, 13.000000)" sketch:type="MSShapeGroup">
                    <path d="M5.68563348,0.564910714 C6.42242771,0.564910714 7.1158811,0.708541667 7.76599365,0.995238095 C8.41553593,1.28136905 8.99037229,1.6721131 9.48879192,2.16633929 C9.98721154,2.66056548 10.3807007,3.23 10.6698297,3.87464286 C10.9589587,4.51928571 11.1032381,5.20690476 11.1032381,5.9375 L11.1032381,11.3095238 L10.0197172,11.3095238 L10.0197172,5.9375 C10.0197172,5.35053571 9.90395152,4.7952381 9.67299048,4.27217262 C9.44145916,3.74910714 9.13123001,3.29389881 8.74116248,2.9071131 C8.35109495,2.52089286 7.89202424,2.21270833 7.36509091,1.983125 C6.8375873,1.75467262 6.27757807,1.63931548 5.68563348,1.63931548 C5.09311861,1.63931548 4.53310938,1.75467262 4.00560577,1.983125 C3.47810216,2.21270833 3.02017201,2.52089286 2.63010447,2.9071131 C2.23946667,3.29389881 1.92866724,3.74910714 1.6977062,4.27217262 C1.46674517,4.7952381 1.35097951,5.35053571 1.35097951,5.9375 L1.35097951,11.3095238 L0.267458586,11.3095238 L0.267458586,5.9375 C0.267458586,5.20690476 0.40888658,4.51928571 0.69060202,3.87464286 C0.971747186,3.23 1.35440115,2.66056548 1.8391342,2.16633929 C2.3227267,1.6721131 2.89300087,1.28136905 3.55052698,0.995238095 C4.2080531,0.708541667 4.91975527,0.564910714 5.68563348,0.564910714" id="Fill-1"></path>
                    <path d="M17.8210678,10.235119 C18.4130124,10.235119 18.9730216,10.1203274 19.5010955,9.89130952 C20.0280289,9.66229167 20.4870996,9.35410714 20.8771671,8.96732143 C21.2672346,8.58053571 21.5774638,8.12532738 21.8084248,7.6022619 C22.0393859,7.0797619 22.1557218,6.52502976 22.1557218,5.9375 C22.1557218,5.35053571 22.0393859,4.7952381 21.8084248,4.27217262 C21.5774638,3.74910714 21.2672346,3.29389881 20.8771671,2.9071131 C20.4870996,2.52089286 20.0280289,2.21270833 19.5010955,1.983125 C18.9730216,1.75467262 18.4130124,1.63931548 17.8210678,1.63931548 C17.228553,1.63931548 16.669114,1.75467262 16.1416104,1.983125 C15.6141068,2.21270833 15.1556063,2.52089286 14.7655388,2.9071131 C14.3754713,3.29389881 14.0641016,3.74910714 13.8337108,4.27217262 C13.6021795,4.7952381 13.4869841,5.35053571 13.4869841,5.9375 C13.4869841,6.52502976 13.6021795,7.0797619 13.8337108,7.6022619 C14.0641016,8.12532738 14.3754713,8.58053571 14.7655388,8.96732143 C15.1556063,9.35410714 15.6141068,9.66229167 16.1416104,9.89130952 C16.669114,10.1203274 17.228553,10.235119 17.8210678,10.235119 L17.8210678,10.235119 Z M17.8210678,0.564910714 C18.5721189,0.564910714 19.2803994,0.704583333 19.9447688,0.984494048 C20.6097085,1.26327381 21.1834043,1.64327381 21.6675671,2.1233631 C22.1517299,2.6028869 22.5343838,3.1728869 22.8160993,3.83166667 C23.098385,4.49044643 23.2386724,5.19276786 23.2386724,5.9375 L23.2386724,11.3095238 L22.1557218,11.3095238 L22.1557218,9.16071429 C21.6641455,9.80535714 21.035133,10.3250298 20.2698251,10.7191667 C19.5039469,11.1127381 18.6878846,11.3095238 17.8210678,11.3095238 C17.0551896,11.3095238 16.3440577,11.1698512 15.6865316,10.890506 C15.0290055,10.6117262 14.458161,10.2317262 13.9745685,9.7516369 C13.4904058,9.27154762 13.1077518,8.70607143 12.8260364,8.05407738 C12.5443209,7.40208333 12.4034632,6.69693452 12.4034632,5.9375 C12.4034632,5.19276786 12.5443209,4.49044643 12.8260364,3.83166667 C13.1077518,3.1728869 13.4904058,2.6028869 13.9745685,2.1233631 C14.458161,1.64327381 15.0290055,1.26327381 15.6865316,0.984494048 C16.3440577,0.704583333 17.0551896,0.564910714 17.8210678,0.564910714 L17.8210678,0.564910714 Z" id="Fill-2"></path>
                    <path d="M30.1760577,0.564910714 C30.9128519,0.564910714 31.6063053,0.704583333 32.2564179,0.984494048 C32.9071007,1.26327381 33.4807965,1.64327381 33.9792162,2.1233631 C34.4776358,2.6028869 34.8716952,3.1728869 35.160254,3.83166667 C35.449383,4.49044643 35.5942326,5.19276786 35.5942326,5.9375 L34.5101414,5.9375 C34.5101414,5.35053571 34.3943758,4.7952381 34.1634147,4.27217262 C33.9318834,3.74910714 33.6216543,3.29389881 33.2315867,2.9071131 C32.8415192,2.52089286 32.3824485,2.21270833 31.8560854,1.983125 C31.3280115,1.75467262 30.7685726,1.63931548 30.1760577,1.63931548 C29.5835429,1.63931548 29.0241039,1.75467262 28.4966003,1.983125 C27.9690967,2.21270833 27.5105962,2.52089286 27.1205287,2.9071131 C26.7304612,3.29389881 26.4196618,3.74910714 26.1887007,4.27217262 C25.9571694,4.7952381 25.841974,5.35053571 25.841974,5.9375 L25.841974,11.3095238 L24.7584531,11.3095238 L24.7584531,5.9375 C24.7584531,5.19276786 24.8993108,4.49044643 25.1810263,3.83166667 C25.4627417,3.1728869 25.8453957,2.6028869 26.3295584,2.1233631 C26.8131509,1.64327381 27.3839954,1.26327381 28.0415215,0.984494048 C28.6984773,0.704583333 29.4101795,0.564910714 30.1760577,0.564910714" id="Fill-3"></path>
                    <path d="M45.2883232,0.564910714 L45.2883232,5.9375 C45.2883232,6.52502976 45.1725576,7.0797619 44.9421668,7.6022619 C44.7106355,8.12532738 44.3998361,8.58053571 44.0103388,8.96732143 C43.6202713,9.35410714 43.1612006,9.66229167 42.6342672,9.89130952 C42.1061934,10.1203274 41.5467544,10.235119 40.9548098,10.235119 L37.955738,10.2266369 L37.955738,0.564910714 L36.8938874,0.564910714 L36.8938874,11.3095238 L40.9548098,11.3095238 C41.6910338,11.3095238 42.3844872,11.1698512 43.03517,10.890506 C43.6852825,10.6117262 44.2595486,10.2317262 44.757398,9.7516369 C45.2563879,9.27154762 45.6498771,8.70607143 45.9384358,8.05407738 C46.2281351,7.40208333 46.3724144,6.69693452 46.3724144,5.9375 L46.3724144,0.564910714 L45.2883232,0.564910714" id="Fill-4"></path>
                    <path d="M53.0896739,10.235119 C53.6816185,10.235119 54.2416277,10.1203274 54.7691313,9.89130952 C55.2966349,9.66229167 55.7551354,9.35410714 56.1452029,8.96732143 C56.5352704,8.58053571 56.8460698,8.12532738 57.0770309,7.6022619 C57.3079919,7.0797619 57.4237576,6.52502976 57.4237576,5.9375 C57.4237576,5.35053571 57.3079919,4.7952381 57.0770309,4.27217262 C56.8460698,3.74910714 56.5352704,3.29389881 56.1452029,2.9071131 C55.7551354,2.52089286 55.2966349,2.21270833 54.7691313,1.983125 C54.2416277,1.75467262 53.6816185,1.63931548 53.0896739,1.63931548 C52.497159,1.63931548 51.9371498,1.75467262 51.4096462,1.983125 C50.8821426,2.21270833 50.4242124,2.52089286 50.0335746,2.9071131 C49.6440773,3.29389881 49.3332779,3.74910714 49.1023169,4.27217262 C48.8707856,4.7952381 48.7550199,5.35053571 48.7550199,5.9375 C48.7550199,6.52502976 48.8707856,7.0797619 49.1023169,7.6022619 C49.3332779,8.12532738 49.6440773,8.58053571 50.0335746,8.96732143 C50.4242124,9.35410714 50.8821426,9.66229167 51.4096462,9.89130952 C51.9371498,10.1203274 52.497159,10.235119 53.0896739,10.235119 L53.0896739,10.235119 Z M53.0896739,0.564910714 C53.840725,0.564910714 54.5484352,0.704583333 55.2133749,0.984494048 C55.8777443,1.26327381 56.4520104,1.64327381 56.9361732,2.1233631 C57.4203359,2.6028869 57.8029899,3.1728869 58.0847053,3.83166667 C58.3664208,4.49044643 58.5072785,5.19276786 58.5072785,5.9375 L58.5072785,11.3095238 L57.4237576,11.3095238 L57.4237576,9.16071429 C56.9327515,9.80535714 56.3037391,10.3250298 55.5384312,10.7191667 C54.772553,11.1127381 53.9564906,11.3095238 53.0896739,11.3095238 C52.3237957,11.3095238 51.6120935,11.1698512 50.9545674,10.890506 C50.2970413,10.6117262 49.7267671,10.2317262 49.2431746,9.7516369 C48.7590118,9.27154762 48.3763579,8.70607143 48.0946424,8.05407738 C47.812927,7.40208333 47.671499,6.69693452 47.671499,5.9375 C47.671499,5.19276786 47.812927,4.49044643 48.0946424,3.83166667 C48.3763579,3.1728869 48.7590118,2.6028869 49.2431746,2.1233631 C49.7267671,1.64327381 50.2970413,1.26327381 50.9545674,0.984494048 C51.6120935,0.704583333 52.3237957,0.564910714 53.0896739,0.564910714 L53.0896739,0.564910714 Z" id="Fill-5"></path>
                    <path d="M65.4446638,0.564910714 C66.181458,0.564910714 66.8749114,0.704583333 67.5244537,0.984494048 C68.1751365,1.26327381 68.7494026,1.64327381 69.2472519,2.1233631 C69.7456716,2.6028869 70.139731,3.1728869 70.42886,3.83166667 C70.717989,4.49044643 70.8622684,5.19276786 70.8622684,5.9375 L69.7787475,5.9375 C69.7787475,5.35053571 69.6629818,4.7952381 69.4320208,4.27217262 C69.2004895,3.74910714 68.8902603,3.29389881 68.5001928,2.9071131 C68.1101253,2.52089286 67.6510545,2.21270833 67.1241212,1.983125 C66.5966176,1.75467262 66.0366084,1.63931548 65.4446638,1.63931548 C64.8521489,1.63931548 64.2921397,1.75467262 63.7646361,1.983125 C63.2371325,2.21270833 62.778632,2.52089286 62.3885645,2.9071131 C61.9990672,3.29389881 61.6876975,3.74910714 61.4573068,4.27217262 C61.2252052,4.7952381 61.1100098,5.35053571 61.1100098,5.9375 L61.1100098,11.3095238 L60.0270592,11.3095238 L60.0270592,5.9375 C60.0270592,5.19276786 60.1673466,4.49044643 60.449062,3.83166667 C60.7307775,3.1728869 61.1140017,2.6028869 61.5975942,2.1233631 C62.0811867,1.64327381 62.6526014,1.26327381 63.3095573,0.984494048 C63.9670834,0.704583333 64.6782153,0.564910714 65.4446638,0.564910714" id="Fill-6"></path>
                </g>
                <path d="M20.1809842,14.5507322 C19.4696967,16.233089 17.786481,17.4579691 15.9457509,17.5342153 C14.9180216,17.5772802 13.883229,17.5412751 12.8547934,17.5412751 C12.5701371,17.5412751 12.3384566,17.299123 12.3384566,17.0174359 L12.3384566,13.3893905 C12.3384566,13.1133513 12.3511708,12.8337821 12.3363376,12.5577429 C12.2854809,11.6265516 11.7790329,10.7080681 10.9738017,10.2159981 C10.1523247,9.71475033 9.09634171,9.56014011 8.20705573,9.99784942 C7.384166,10.4023775 6.72585422,11.1125962 6.52030838,12.0254319 C6.43625355,12.3996027 6.44472966,12.7723616 6.44472966,13.1528863 L6.44472966,14.6523937 L6.44472966,17.0252017 C6.44472966,17.3097127 6.20245398,17.5412751 5.92062308,17.5412751 L5.05394008,17.5412751 C4.7692838,17.5412751 4.53760326,17.299123 4.53760326,17.0174359 L4.53760326,14.7138142 C4.53760326,13.8871084 4.45990552,13.0131017 4.56515064,12.1899258 C4.81166439,10.2632989 6.16784316,8.51457966 8.08980277,8.01050798 C10.0576747,7.49372861 12.129379,8.24489425 13.3202735,9.89336397 C13.9107764,10.710186 14.245583,11.6830302 14.245583,12.6939975 L14.245583,13.5898896 L14.245583,15.6294738 C14.632659,15.6308858 15.0197351,15.6330037 15.4068111,15.6344157 C15.9139654,15.6358276 16.4175881,15.6111182 16.8830682,15.3823798 C17.9602414,14.8528928 18.6453943,13.8383956 18.6453943,12.6262232 L18.6453943,9.04830262 C18.6453943,8.87251292 18.7174412,8.74402406 18.8233927,8.66071809 C18.9060349,8.58235401 19.0218751,8.53222923 19.1695008,8.53222923 L20.0361838,8.53222923 C20.3208401,8.53222923 20.5525207,8.77438131 20.5525207,9.05606843 L20.5525207,11.4528799 C20.5525207,12.5090301 20.602671,13.5517666 20.1809842,14.5507322 L20.1809842,14.5507322 Z M12.4090909,1.13000011 C5.78147348,1.13000011 0.408321423,6.50041088 0.408321423,13.125353 C0.408321423,19.7495891 5.78147348,25.1199999 12.4090909,25.1199999 C19.0367083,25.1199999 24.4098604,19.7495891 24.4098604,13.125353 C24.4098604,6.50041088 19.0367083,1.13000011 12.4090909,1.13000011 L12.4090909,1.13000011 Z" id="Fill-8" sketch:type="MSShapeGroup"></path>
                <text id="POWERED-BY-2" sketch:type="MSTextLayer" font-family="Helvetica Neue" font-size="9" font-weight="260" letter-spacing="0.319999993">
                    <tspan x="28" y="9">POWERED BY</tspan>
                </text>
            </g>
        </g>
    </g>
</svg>