<?xml version="1.0" encoding="UTF-8" standalone="no"?>
<svg width="264px" height="80px" viewBox="0 0 264 80" version="1.1" xmlns="http://www.w3.org/2000/svg" xmlns:xlink="http://www.w3.org/1999/xlink" xmlns:sketch="http://www.bohemiancoding.com/sketch/ns">
    <!-- Generator: Sketch 3.3.3 (12072) - http://www.bohemiancoding.com/sketch -->
    <title>reebok_d_statusicon_justship</title>
    <desc>Created with Sketch.</desc>
    <defs></defs>
    <g id="Page-1" stroke="none" stroke-width="1" fill="none" fill-rule="evenodd" sketch:type="MSPage">
        <g id="reebok_d_statusicon_justship" sketch:type="MSArtboardGroup" fill="#727269">
            <g id="Imported-Layers" sketch:type="MSLayerGroup" transform="translate(73.000000, 39.000000)">
                <path d="M48,0 L50.038,0 L50.038,2 L48,2 L48,0 Z" id="Fill-9" sketch:type="MSShapeGroup"></path>
                <path d="M44,0 L46.039,0 L46.039,2 L44,2 L44,0 Z" id="Fill-10" sketch:type="MSShapeGroup"></path>
                <path d="M40,0 L42.039,0 L42.039,2 L40,2 L40,0 Z" id="Fill-11" sketch:type="MSShapeGroup"></path>
                <path d="M36,0 L38.038,0 L38.038,2 L36,2 L36,0 Z" id="Fill-12" sketch:type="MSShapeGroup"></path>
                <path d="M32,0 L34.039,0 L34.039,2 L32,2 L32,0 Z" id="Fill-13" sketch:type="MSShapeGroup"></path>
                <path d="M28,0 L30.039,0 L30.039,2 L28,2 L28,0 Z" id="Fill-14" sketch:type="MSShapeGroup"></path>
                <path d="M24,0 L26.039,0 L26.039,2 L24,2 L24,0 Z" id="Fill-15" sketch:type="MSShapeGroup"></path>
                <path d="M20,0 L22.039,0 L22.039,2 L20,2 L20,0 Z" id="Fill-16" sketch:type="MSShapeGroup"></path>
                <path d="M16,0 L18.039,0 L18.039,2 L16,2 L16,0 Z" id="Fill-17" sketch:type="MSShapeGroup"></path>
                <path d="M12,0 L14.039,0 L14.039,2 L12,2 L12,0 Z" id="Fill-18" sketch:type="MSShapeGroup"></path>
                <path d="M8,0 L10.039,0 L10.039,2 L8,2 L8,0 Z" id="Fill-19" sketch:type="MSShapeGroup"></path>
                <path d="M4,0 L6.039,0 L6.039,2 L4,2 L4,0 Z" id="Fill-20" sketch:type="MSShapeGroup"></path>
                <path d="M0,0 L2.039,0 L2.039,2 L0,2 L0,0 Z" id="Fill-21" sketch:type="MSShapeGroup"></path>
            </g>
            <path d="M226.5,35 C228.981,35 231,37.019 231,39.5 C231,41.981 228.981,44 226.5,44 C224.019,44 222,41.981 222,39.5 C222,37.019 224.019,35 226.5,35 M226.5,33 C222.91,33 220,35.91 220,39.5 C220,43.09 222.91,46 226.5,46 C230.09,46 233,43.09 233,39.5 C233,35.91 230.09,33 226.5,33" id="Imported-Layers" sketch:type="MSShapeGroup"></path>
            <path d="M131.5,35 C133.981,35 136,37.019 136,39.5 C136,41.981 133.981,44 131.5,44 C129.019,44 127,41.981 127,39.5 C127,37.019 129.019,35 131.5,35 M131.5,33 C127.91,33 125,35.91 125,39.5 C125,43.09 127.91,46 131.5,46 C135.09,46 138,43.09 138,39.5 C138,35.91 135.09,33 131.5,33" id="Imported-Layers" sketch:type="MSShapeGroup"></path>
            <path d="M39.25,8 C56.481,8 70.5,22.019 70.5,39.25 C70.5,56.481 56.481,70.5 39.25,70.5 C22.019,70.5 8,56.481 8,39.25 C8,22.019 22.019,8 39.25,8 M39.25,6 C20.887,6 6,20.887 6,39.25 C6,57.613 20.887,72.5 39.25,72.5 C57.613,72.5 72.5,57.613 72.5,39.25 C72.5,20.887 57.613,6 39.25,6" id="Imported-Layers" sketch:type="MSShapeGroup"></path>
            <g id="Imported-Layers-Copy" sketch:type="MSLayerGroup" transform="translate(139.000000, 39.000000)">
                <path d="M77.644,0.125 L79.682,0.125 L79.682,2.125 L77.644,2.125 L77.644,0.125 Z" id="Fill-2" sketch:type="MSShapeGroup"></path>
                <path d="M73.566,0.125 L75.605,0.125 L75.605,2.125 L73.566,2.125 L73.566,0.125 Z" id="Fill-3" sketch:type="MSShapeGroup"></path>
                <path d="M69.488,0.125 L71.527,0.125 L71.527,2.125 L69.488,2.125 L69.488,0.125 Z" id="Fill-4" sketch:type="MSShapeGroup"></path>
                <path d="M65.411,0.125 L67.449,0.125 L67.449,2.125 L65.411,2.125 L65.411,0.125 Z" id="Fill-5" sketch:type="MSShapeGroup"></path>
                <path d="M61.334,0.125 L63.372,0.125 L63.372,2.125 L61.334,2.125 L61.334,0.125 Z" id="Fill-6" sketch:type="MSShapeGroup"></path>
                <path d="M57.256,0.125 L59.295,0.125 L59.295,2.125 L57.256,2.125 L57.256,0.125 Z" id="Fill-7" sketch:type="MSShapeGroup"></path>
                <path d="M53.179,0.125 L55.217,0.125 L55.217,2.125 L53.179,2.125 L53.179,0.125 Z" id="Fill-8" sketch:type="MSShapeGroup"></path>
                <path d="M49.102,0.125 L51.14,0.125 L51.14,2.125 L49.102,2.125 L49.102,0.125 Z" id="Fill-9" sketch:type="MSShapeGroup"></path>
                <path d="M45.023,0.125 L47.062,0.125 L47.062,2.125 L45.023,2.125 L45.023,0.125 Z" id="Fill-10" sketch:type="MSShapeGroup"></path>
                <path d="M40.945,0.125 L42.984,0.125 L42.984,2.125 L40.945,2.125 L40.945,0.125 Z" id="Fill-11" sketch:type="MSShapeGroup"></path>
                <path d="M36.869,0.125 L38.907,0.125 L38.907,2.125 L36.869,2.125 L36.869,0.125 Z" id="Fill-12" sketch:type="MSShapeGroup"></path>
                <path d="M32.791,0.125 L34.83,0.125 L34.83,2.125 L32.791,2.125 L32.791,0.125 Z" id="Fill-13" sketch:type="MSShapeGroup"></path>
                <path d="M28.713,0.125 L30.752,0.125 L30.752,2.125 L28.713,2.125 L28.713,0.125 Z" id="Fill-14" sketch:type="MSShapeGroup"></path>
                <path d="M24.636,0.125 L26.675,0.125 L26.675,2.125 L24.636,2.125 L24.636,0.125 Z" id="Fill-15" sketch:type="MSShapeGroup"></path>
                <path d="M20.559,0.125 L22.598,0.125 L22.598,2.125 L20.559,2.125 L20.559,0.125 Z" id="Fill-16" sketch:type="MSShapeGroup"></path>
                <path d="M16.481,0.125 L18.52,0.125 L18.52,2.125 L16.481,2.125 L16.481,0.125 Z" id="Fill-17" sketch:type="MSShapeGroup"></path>
                <path d="M12.403,0.125 L14.442,0.125 L14.442,2.125 L12.403,2.125 L12.403,0.125 Z" id="Fill-18" sketch:type="MSShapeGroup"></path>
                <path d="M8.326,0.125 L10.365,0.125 L10.365,2.125 L8.326,2.125 L8.326,0.125 Z" id="Fill-19" sketch:type="MSShapeGroup"></path>
                <path d="M4.249,0.125 L6.288,0.125 L6.288,2.125 L4.249,2.125 L4.249,0.125 Z" id="Fill-20" sketch:type="MSShapeGroup"></path>
                <path d="M0.171,0.125 L2.21,0.125 L2.21,2.125 L0.171,2.125 L0.171,0.125 Z" id="Fill-21" sketch:type="MSShapeGroup"></path>
            </g>
            <g id="Imported-Layers" sketch:type="MSLayerGroup" transform="translate(21.000000, 16.000000)">
                <path d="M12.2317377,11.3394583 L17.5184262,15.5009028 C17.6978361,15.6436389 17.9232787,15.721875 18.1522623,15.721875 C18.4019016,15.721875 18.6426885,15.6299028 18.8303607,15.463875 L23.5316066,11.3012361 C23.9582951,10.9231944 24.0019672,10.2632639 23.6283934,9.83027778 C23.2683934,9.41401389 22.5843934,9.36802778 22.1754098,9.73293056 L19.1820984,12.3828056 L19.1820984,1.59756944 C19.1820984,1.02244444 18.72,0.554819444 18.1522623,0.554819444 C17.5839344,0.554819444 17.1218361,1.02244444 17.1218361,1.59756944 L17.1218361,12.5476389 L13.4958689,9.69411111 C13.0615082,9.35309722 12.3857705,9.43969444 12.0505574,9.87686111 C11.8817705,10.0966389 11.8074098,10.3695694 11.8410492,10.6460833 C11.8758689,10.9225972 12.0139672,11.16925 12.2317377,11.3394583" id="Fill-1" sketch:type="MSShapeGroup"></path>
                <path d="M29.6238689,21.7018611 L15.1914098,21.7060417 L19.8908852,28.4289722 L29.1623607,27.9195417 L29.1623607,40.0969028 L14.9647869,41.5188889 L14.9647869,21.7066389 L14.9258361,21.7066389 L14.9258361,41.5165 L5.91993443,39.4333889 L5.91993443,27.9547778 L10.9628852,28.6672639 L14.7930492,21.7066389 L5.42006557,21.709625 L1.83954098,27.3778611 L5.84085246,27.9440278 L5.84085246,39.4638472 L14.9199344,41.5612917 L29.2013115,40.1321389 L29.2013115,27.91775 L33.7963279,27.6657222 L29.6238689,21.7018611 L29.6238689,21.7018611 Z M1.90091803,27.3468056 L5.44603279,21.7478472 L14.7293115,21.7412778 L10.9428197,28.6254583 L1.90091803,27.3468056 L1.90091803,27.3468056 Z M19.9103607,28.3889583 L15.264,21.741875 L29.6067541,21.74725 L33.7231475,27.6298889 L19.9103607,28.3889583 L19.9103607,28.3889583 Z" id="Fill-2" sketch:type="MSShapeGroup"></path>
                <path d="M30.0818361,20.8060278 L4.93495082,20.8137917 L0.351147541,28.0718333 L4.95560656,28.7234028 L4.95560656,40.178125 L14.8632787,42.4672778 L30.0865574,40.9443611 L30.0865574,28.7658056 L35.4452459,28.4719722 L30.0818361,20.8060278 L30.0818361,20.8060278 Z M29.2013115,40.1321389 L14.9199344,41.5612917 L5.84085246,39.4638472 L5.84085246,27.9440278 L1.83954098,27.3778611 L5.42006557,21.709625 L14.7930492,21.7066389 L10.9628852,28.6672639 L5.91993443,27.9547778 L5.91993443,39.4333889 L14.9258361,41.5165 L14.9258361,21.7066389 L14.9647869,41.5188889 L29.1623607,40.0969028 L29.1623607,27.9195417 L19.8908852,28.4289722 L15.1914098,21.7060417 L29.6238689,21.7018611 L33.7963279,27.6657222 L29.2013115,27.91775 L29.2013115,40.1321389 Z M14.0405902,24.9155139 L14.0405902,40.3925278 L6.80518033,38.7191111 L6.80518033,28.9843889 L11.440918,29.6395417 L14.0405902,24.9155139 L14.0405902,24.9155139 Z M15.8500328,40.5298889 L15.8500328,24.1994444 L19.450623,29.3498889 L28.2771148,28.8655417 L28.2771148,39.285875 L15.8500328,40.5298889 L15.8500328,40.5298889 Z" id="Fill-3" sketch:type="MSShapeGroup"></path>
                <path d="M14.7293115,21.7412778 L5.44603279,21.7478472 L1.90091803,27.3468056 L10.9428197,28.6254583 L14.7293115,21.7412778 L14.7293115,21.7412778 Z M3.39167213,26.6528333 L5.92996721,22.6430833 L13.2232131,22.6383056 L10.4641967,27.6531806 L3.39167213,26.6528333 L3.39167213,26.6528333 Z" id="Fill-4" sketch:type="MSShapeGroup"></path>
                <path d="M29.6067541,21.74725 L15.264,21.741875 L19.9103607,28.3889583 L33.7231475,27.6298889 L29.6067541,21.74725 L29.6067541,21.74725 Z M16.9754754,22.6383056 L29.1487869,22.6430833 L32.0742295,26.8236389 L20.350623,27.4674444 L16.9754754,22.6383056 L16.9754754,22.6383056 Z" id="Fill-5" sketch:type="MSShapeGroup"></path>
            </g>
        </g>
    </g>
</svg>