<?xml version="1.0" encoding="UTF-8" standalone="no"?>
<svg width="40px" height="40px" viewBox="0 0 40 40" version="1.1" xmlns="http://www.w3.org/2000/svg" xmlns:xlink="http://www.w3.org/1999/xlink" xmlns:sketch="http://www.bohemiancoding.com/sketch/ns">
    <!-- Generator: Sketch 3.4.1 (15681) - http://www.bohemiancoding.com/sketch -->
    <title>desktop-icon</title>
    <desc>Created with Sketch.</desc>
    <defs></defs>
    <g id="3" stroke="none" stroke-width="1" fill="none" fill-rule="evenodd" sketch:type="MSPage">
        <g id="desktop-icon" sketch:type="MSArtboardGroup">
            <g id="Rectangle-298-+-icons-desktop-Copy-2" sketch:type="MSLayerGroup">
                <rect id="Rectangle-298" sketch:type="MSShapeGroup" x="0" y="0" width="40" height="40"></rect>
                <g id="icons-desktop" transform="translate(4.000000, 8.000000)" fill="#FFFFFF" sketch:type="MSShapeGroup">
                    <g id="Layer_1">
                        <path d="M32,0.888888889 L32,18.6666667 C32,19.1111111 31.5555556,19.5555556 31.1111111,19.5555556 L19.5555556,19.5555556 L19.5555556,21.3333333 L23.1111111,21.3333333 C23.5555556,21.3333333 24,21.7777778 24,22.2222222 C24,22.6666667 23.5555556,23.1111111 23.1111111,23.1111111 L8.88888889,23.1111111 C8.44444444,23.1111111 8,22.6666667 8,22.2222222 C8,21.7777778 8.44444444,21.3333333 8.88888889,21.3333333 L12.4444444,21.3333333 L12.4444444,19.5555556 L0.888888889,19.5555556 C0.444444444,19.5555556 0,19.1111111 0,18.6666667 L0,0.888888889 C0,0.444444444 0.444444444,0 0.888888889,0 L31.1111111,0 C31.5555556,0 32,0.444444444 32,0.888888889 L32,0.888888889 Z M30.2222222,1.77777778 L1.77777778,1.77777778 L1.77777778,17.7777778 L30.2222222,17.7777778 L30.2222222,1.77777778 L30.2222222,1.77777778 Z" id="Shape"></path>
                    </g>
                </g>
            </g>
        </g>
    </g>
</svg>