<?xml version="1.0" encoding="UTF-8" standalone="no"?>
<svg width="40px" height="40px" viewBox="0 0 40 40" version="1.1" xmlns="http://www.w3.org/2000/svg" xmlns:xlink="http://www.w3.org/1999/xlink" xmlns:sketch="http://www.bohemiancoding.com/sketch/ns">
    <!-- Generator: Sketch 3.4.1 (15681) - http://www.bohemiancoding.com/sketch -->
    <title>exception-icon</title>
    <desc>Created with Sketch.</desc>
    <defs></defs>
    <g id="3" stroke="none" stroke-width="1" fill="none" fill-rule="evenodd" sketch:type="MSPage">
        <g id="exception-icon" sketch:type="MSArtboardGroup">
            <g id="Rectangle-10-+-Imported-Layers-4-Copy-3" sketch:type="MSLayerGroup">
                <rect id="Rectangle-10" sketch:type="MSShapeGroup" x="0" y="0" width="40" height="40"></rect>
                <g id="Imported-Layers-4-Copy" transform="translate(5.000000, 7.000000)" fill="#FFFFFF" opacity="0.400000006" sketch:type="MSShapeGroup">
                    <path d="M14.7605554,0.0909545227 C14.4930693,0.132822478 14.2649368,0.293364429 14.1365199,0.517430174 L0.211858427,24.5990116 C0.0591783316,24.8640791 0.05888244,25.2042201 0.211858427,25.4675551 C0.366905656,25.7349325 0.653920564,25.9099117 0.966678047,25.9099117 L28.8168886,25.9099117 C29.1290543,25.9099117 29.4169569,25.7349325 29.5720041,25.4675551 C29.7246842,25.2042201 29.7246842,24.8640791 29.5720041,24.5990116 L15.6473427,0.517430174 C15.4686241,0.206452329 15.1227268,0.034649342 14.7605554,0.0909545227 M14.8919313,2.86145816 L26.7148742,23.6478872 L3.05241835,23.6478872 L14.8919313,2.86145816" id="Fill-1"></path>
                    <path d="M14.9679754,19.6773613 C14.1675885,19.6773613 13.5166268,20.3244378 13.5166268,21.1196402 C13.5166268,21.9148426 14.1675885,22.5616303 14.9679754,22.5616303 C15.7683624,22.5616303 16.419324,21.9148426 16.419324,21.1196402 C16.419324,20.3244378 15.7683624,19.6773613 14.9679754,19.6773613" id="Fill-2"></path>
                    <path d="M15.4135883,7.61015048 L14.4028224,7.61015048 C13.7216798,7.61015048 13.1878912,8.37994336 13.188483,9.37928813 L13.6195971,16.0969293 C13.6195971,17.0792382 14.1536816,17.8487423 14.835416,17.8487423 L14.9815864,17.8487423 C15.662729,17.8487423 16.1962217,17.0792382 16.1956299,16.1145427 L16.6285194,9.36138597 C16.6288153,8.37994336 16.0950267,7.61015048 15.4135883,7.61015048" id="Fill-3"></path>
                </g>
            </g>
        </g>
    </g>
</svg>