<?xml version="1.0" encoding="UTF-8" standalone="no"?>
<svg width="40px" height="40px" viewBox="0 0 40 40" version="1.1" xmlns="http://www.w3.org/2000/svg" xmlns:xlink="http://www.w3.org/1999/xlink" xmlns:sketch="http://www.bohemiancoding.com/sketch/ns">
    <!-- Generator: Sketch 3.3.3 (12081) - http://www.bohemiancoding.com/sketch -->
    <title>icon_ups_logo</title>
    <desc>Created with Sketch.</desc>
    <defs></defs>
    <g id="Specs" stroke="none" stroke-width="1" fill="none" fill-rule="evenodd" sketch:type="MSPage">
        <g id="icon_ups_logo" sketch:type="MSArtboardGroup">
            <g id="Rectangle-112-+-Imported-Layers-Copy-2" sketch:type="MSLayerGroup">
                <rect id="Rectangle-112" sketch:type="MSShapeGroup" x="0" y="0" width="40" height="40"></rect>
                <g id="Imported-Layers-Copy" transform="translate(6.000000, 4.000000)" fill="#999999" sketch:type="MSShapeGroup">
                    <path d="M0.114509804,3.56839024 C0.491764706,3.38887805 0.865098039,3.20234146 1.24627451,3.03063415 C2.93411765,2.272 4.69647059,1.74439024 6.50823529,1.37287805 C9.10745098,0.839804878 11.7364706,0.630634146 14.3858824,0.709463415 C17.7105882,0.807804878 20.9670588,1.3057561 24.0972549,2.46712195 C24.9184314,2.7715122 25.7043137,3.168 26.5082353,3.51921951 C26.6,3.55980488 26.6321569,3.61443902 26.6321569,3.71746341 C26.6290196,8.74068293 26.6337255,13.7639024 26.6266667,18.7879024 C26.625098,20.4167805 26.3066667,21.9816585 25.5584314,23.4427317 C24.7647059,24.993561 23.6133333,26.2197073 22.1333333,27.1414634 C20.7184314,28.0218537 19.2321569,28.7687805 17.7239216,29.4712195 C16.3262745,30.1221463 14.9152941,30.7410732 13.5082353,31.3685854 C13.4376471,31.3998049 13.3333333,31.4083902 13.2658824,31.3795122 C10.545098,30.2119024 7.84470588,29.0021463 5.26666667,27.5387317 C4.21254902,26.9400976 3.24627451,26.2337561 2.44784314,25.312 C1.22196078,23.8977561 0.50745098,22.2556098 0.239215686,20.4152195 C0.191372549,20.0881951 0.17254902,19.7580488 0.139607843,19.4286829 C0.134901961,19.3802927 0.122352941,19.3303415 0.114509804,19.2819512 L0.114509804,3.56839024 L0.114509804,3.56839024 Z M26.332549,11.8025366 L26.3341176,11.8025366 C26.3341176,9.17307317 26.3341176,6.54439024 26.3372549,3.91570732 C26.3372549,3.79863415 26.3043137,3.73541463 26.1960784,3.68 C24.2956863,2.71063415 22.2776471,2.08156098 20.1929412,1.65229268 C17.7764706,1.15512195 15.332549,0.947512195 12.8658824,0.981853659 C10.6635294,1.01229268 8.48235294,1.24097561 6.32627451,1.70146341 C4.32078431,2.13073171 2.38039216,2.74887805 0.548235294,3.68234146 C0.447058824,3.73385366 0.411764706,3.79160976 0.411764706,3.904 C0.414901961,8.87726829 0.414117647,13.8497561 0.415686275,18.8230244 C0.415686275,19.4958049 0.477647059,20.163122 0.605490196,20.8241951 C0.973333333,22.7449756 1.85019608,24.3918049 3.27215686,25.7490732 C4.07686275,26.5178537 5.02117647,27.0829268 5.98980392,27.612878 C8.34666667,28.9038049 10.7945098,30.0042927 13.2611765,31.0657561 C13.3254902,31.0930732 13.4235294,31.0915122 13.4878431,31.0626341 C14.1733333,30.7699512 14.8572549,30.4741463 15.5364706,30.1674146 C17.5560784,29.2558049 19.5592157,28.3129756 21.48,27.2039024 C22.6792157,26.5116098 23.7294118,25.6554146 24.5490196,24.5338537 C25.7694118,22.8628293 26.3137255,20.9717073 26.3286275,18.9260488 C26.347451,16.5518049 26.332549,14.1767805 26.332549,11.8025366 L26.332549,11.8025366 Z" id="Fill-1"></path>
                    <path d="M25.2980392,11.9211707 C25.2980392,14.2556098 25.3105882,16.5892683 25.2933333,18.9237073 C25.2815686,20.6446829 24.8501961,22.2517073 23.8792157,23.6963902 C23.2094118,24.6922927 22.3466667,25.4876098 21.3215686,26.115122 C19.8619608,27.008 18.3262745,27.7603902 16.7772549,28.4839024 C15.694902,28.988878 14.5992157,29.4649756 13.5121569,29.9574634 C13.4164706,30.0019512 13.3380392,30.0042927 13.2384314,29.9605854 C11.2031373,29.0731707 9.18117647,28.156878 7.21411765,27.1250732 C6.34196078,26.6684878 5.46823529,26.2087805 4.68313725,25.6093659 C3.01176471,24.3348293 1.99215686,22.6520976 1.62352941,20.5947317 C1.51137255,19.968 1.45647059,19.3225366 1.45333333,18.684878 C1.43529412,15.8727805 1.44627451,13.0614634 1.44392157,10.2493659 C1.44313725,10.1494634 1.47215686,10.0823415 1.54980392,10.014439 C4.29411765,7.58790244 7.44941176,5.91531707 10.972549,4.91395122 C13.1278431,4.30204878 15.3301961,3.95941463 17.5647059,3.81346341 C20.094902,3.64878049 22.6196078,3.7377561 25.1435294,3.95239024 C25.2847059,3.96409756 25.3027451,4.02107317 25.3027451,4.14204878 C25.2996078,6.73482927 25.3003922,9.32839024 25.3003922,11.9211707 L25.2980392,11.9211707 L25.2980392,11.9211707 Z M12.92,21.2573659 C12.9584314,21.2534634 12.9678431,21.2503415 12.9780392,21.2519024 C13.0180392,21.2589268 13.0580392,21.2675122 13.0980392,21.2753171 C13.7035294,21.4001951 14.3066667,21.3970732 14.905098,21.2417561 C15.9631373,20.9685854 16.6909804,20.2934634 17.1952941,19.3545366 C17.6439216,18.5186341 17.8407843,17.6132683 17.9113725,16.6766829 C17.9929412,15.5832195 17.9380392,14.5006829 17.5960784,13.4485854 C17.0133333,11.651122 15.6996078,10.6505366 13.8564706,10.6091707 C12.7709804,10.5841951 11.7286275,10.7613659 10.772549,11.3108293 C10.6745098,11.3670244 10.6298039,11.4263415 10.6298039,11.5473171 C10.6329412,16.286439 10.6329412,21.025561 10.6305882,25.7646829 C10.6305882,25.888 10.6596078,25.9309268 10.7905882,25.9301463 C11.4501961,25.9239024 12.1090196,25.9270244 12.7678431,25.9262439 C12.812549,25.9262439 12.8580392,25.9207805 12.92,25.9176585 L12.92,21.2573659 L12.92,21.2573659 Z M4.8972549,10.8401951 C4.8345098,10.8355122 4.7945098,10.8300488 4.75529412,10.8300488 C4.09098039,10.8292683 3.42666667,10.8323902 2.76235294,10.8261463 C2.62823529,10.8245854 2.60392157,10.8745366 2.60392157,10.9939512 C2.60784314,13.2667317 2.60156863,15.5395122 2.61254902,17.8122927 C2.61411765,18.2119024 2.65098039,18.6169756 2.72941176,19.008 C2.96941176,20.2138537 3.68235294,20.995122 4.9027451,21.28 C5.57333333,21.436878 6.25176471,21.4212683 6.93019608,21.3486829 C7.7772549,21.2589268 8.58352941,21.0341463 9.32,20.5923902 C9.40470588,20.5416585 9.46823529,20.4932683 9.46823529,20.3715122 C9.46352941,17.2394146 9.46352941,14.1073171 9.46666667,10.976 C9.46666667,10.8636098 9.43529412,10.8261463 9.32,10.8269268 C8.65568627,10.8316098 7.99215686,10.8323902 7.32784314,10.8269268 C7.20156863,10.8253659 7.17411765,10.8698537 7.17490196,10.9853659 C7.17882353,11.6105366 7.17647059,12.2357073 7.17647059,12.860878 C7.17647059,14.9299512 7.17490196,16.9990244 7.17882353,19.068878 C7.17960784,19.2 7.1372549,19.2710244 7.01803922,19.3233171 C6.70745098,19.4606829 6.38196078,19.5075122 6.04627451,19.4997073 C5.53176471,19.4872195 5.16313725,19.2327805 5.01960784,18.7402927 C4.94509804,18.4803902 4.90352941,18.2017561 4.9027451,17.9309268 C4.89333333,15.6378537 4.8972549,13.3447805 4.8972549,11.0524878 L4.8972549,10.8401951 L4.8972549,10.8401951 Z M24.0360784,13.2612683 C24.0360784,12.6321951 24.0329412,12.0530732 24.0376471,11.4739512 C24.0392157,11.3646829 24.0062745,11.2952195 23.9121569,11.2382439 C22.7129412,10.5201951 21.452549,10.3570732 20.1631373,10.9354146 C18.4109804,11.7213659 17.8807843,13.9395122 19.0635294,15.3959024 C19.3521569,15.7510244 19.7035294,16.0382439 20.0854902,16.286439 C20.4870588,16.5479024 20.9019608,16.7882927 21.3043137,17.0489756 C21.5662745,17.219122 21.8007843,17.4236098 21.9568627,17.7022439 C22.4023529,18.4952195 21.9654902,19.3990244 21.0666667,19.5270244 C20.8760784,19.5543415 20.6776471,19.5566829 20.4870588,19.5340488 C19.8219608,19.4520976 19.2376471,19.169561 18.7082353,18.7699512 C18.6690196,18.7402927 18.6290196,18.7129756 18.5788235,18.6770732 C18.5694118,18.7121951 18.5615686,18.7309268 18.5615686,18.748878 C18.56,19.3693659 18.5576471,19.9890732 18.5647059,20.609561 C18.5654902,20.6626341 18.6235294,20.7383415 18.6745098,20.7656585 C19.5341176,21.2292683 20.4494118,21.4587317 21.4298039,21.3830244 C22.3035294,21.3159024 23.0603922,21.0013659 23.6556863,20.3356098 C24.5835294,19.2999024 24.8470588,17.0364878 23.2345098,15.7713171 C22.7341176,15.3787317 22.185098,15.068878 21.6462745,14.7395122 C21.3952941,14.5873171 21.1498039,14.4132683 20.9403922,14.2087805 C20.4713725,13.7498537 20.494902,12.6993171 21.414902,12.4339512 C21.5513725,12.3941463 21.694902,12.3668293 21.8360784,12.3598049 C22.6258824,12.3239024 23.2862745,12.6337561 23.8784314,13.1246829 C23.92,13.1590244 23.96,13.1949268 24.0360784,13.2612683 L24.0360784,13.2612683 Z" id="Fill-2"></path>
                    <path d="M12.9239216,15.9820488 C12.9239216,14.8948293 12.9262745,13.8068293 12.92,12.7188293 C12.9192157,12.5853659 12.9670588,12.5307317 13.0862745,12.4971707 C13.4729412,12.3863415 13.8611765,12.3660488 14.2509804,12.4675122 C14.6862745,12.5806829 14.9803922,12.864 15.1772549,13.2534634 C15.4172549,13.7303415 15.507451,14.2454634 15.5521569,14.7699512 C15.6352941,15.7611707 15.6415686,16.7500488 15.4439216,17.731122 C15.3623529,18.1322927 15.2337255,18.5170732 14.9976471,18.8597073 C14.5733333,19.4770732 13.6941176,19.7322927 13.0054902,19.4286829 C12.9615686,19.4099512 12.9270588,19.3186341 12.9270588,19.2616585 C12.9231373,18.1689756 12.9239216,17.0755122 12.9239216,15.9820488" id="Fill-3"></path>
                </g>
            </g>
        </g>
    </g>
</svg>