<?xml version="1.0" encoding="utf-8"?>
<!-- Generator: Adobe Illustrator 19.1.0, SVG Export Plug-In . SVG Version: 6.00 Build 0)  -->
<svg version="1.1" id="Layer_1" xmlns:sketch="http://www.bohemiancoding.com/sketch/ns"
	 xmlns="http://www.w3.org/2000/svg" xmlns:xlink="http://www.w3.org/1999/xlink" x="0px" y="0px" viewBox="-367 513.7 40 40"
	 style="enable-background:new -367 513.7 40 40;" xml:space="preserve">
<style type="text/css">
	.st0{fill:#FFFFFF;}
</style>
<g id="_x31__1_" sketch:type="MSPage">
	<g id="status-icon-justship_1_" sketch:type="MSArtboardGroup">
		<path id="Imported-Layers_1_" sketch:type="MSShapeGroup" class="st0" d="M-347.1,514.9c10.4,0,18.8,8.4,18.8,18.8
			s-8.4,18.8-18.8,18.8c-10.4,0-18.8-8.4-18.8-18.8S-357.4,514.9-347.1,514.9 M-347.1,513.7c-11,0-20,9-20,20s9,20,20,20
			c11,0,20-9,20-20S-336,513.7-347.1,513.7"/>
		<g id="Just-Shipped_2_" transform="translate(22.000000, 16.000000)" sketch:type="MSLayerGroup">
			<path id="Fill-1_1_" sketch:type="MSShapeGroup" class="st0" d="M-362.7,521.4c0.5,0.1,1,0.1,1.5,0.2c0,0.4,0,0.8,0,1.1
				c0,1.2,0,2.3,0,3.5c0,0.5-0.1,0.6-0.6,0.7c-1.9,0.4-3.9,0.8-5.8,1.2c-0.3,0.1-0.6,0.1-0.9,0.2c-0.5,0.1-1.1-0.1-1.6-0.2
				c-2-0.4-4-0.8-5.9-1.2c-0.5-0.1-0.5-0.2-0.5-0.7c0-1.5,0-2.9,0-4.4c0-0.1,0-0.1,0-0.2c0.5,0,0.9-0.1,1.4-0.1
				c1.1-0.1,2.2-0.2,3.3-0.3c0.3,0,0.5,0,0.8-0.1c0.6-0.1,0.9-0.5,1.2-1c0.3-0.8,0.7-1.5,1-2.3c0-0.1,0.1-0.1,0.1-0.2
				c0,0.5,0,0.9,0,1.4c0,2.4,0,4.9,0,7.3c0,0.4,0,0.4,0.4,0.3c1.9-0.3,3.7-0.7,5.6-1c0.2,0,0.2-0.1,0.2-0.3c0-1.2,0-2.4,0-3.6
				C-362.7,521.6-362.7,521.6-362.7,521.4"/>
			<path id="Fill-2_1_" sketch:type="MSShapeGroup" class="st0" d="M-368.9,514.6c0.5,0.1,1,0.2,1.4,0.3c2,0.4,4,0.8,6,1.2
				c0.2,0,0.4,0.1,0.5,0.3c0.6,1.3,1.3,2.6,2,3.8c0,0.1,0.1,0.3,0,0.3c-0.1,0.1-0.2,0.1-0.3,0.1c-1.1-0.1-2.2-0.2-3.2-0.3
				c-1-0.1-2.1-0.2-3.1-0.3c-0.2,0-0.4-0.1-0.6-0.1c-0.2,0-0.3-0.1-0.4-0.3C-367.4,518-368.1,516.3-368.9,514.6
				C-368.9,514.6-368.9,514.6-368.9,514.6"/>
			<path id="Fill-3_1_" sketch:type="MSShapeGroup" class="st0" d="M-369.7,516.5c-0.4,1-0.9,2-1.3,3.1c-0.1,0.2-0.2,0.3-0.5,0.4
				c-1.3,0.1-2.5,0.2-3.8,0.4c-1,0.1-2.1,0.2-3.1,0.3c-0.1,0-0.3,0-0.3-0.1c0-0.1,0-0.2,0-0.3c0.6-1.3,1.3-2.5,1.9-3.8
				c0.1-0.2,0.2-0.3,0.4-0.3c2-0.4,4-0.8,6-1.2c0.5-0.1,1-0.2,1.5-0.3C-369.2,515.2-369.5,515.9-369.7,516.5z"/>
			<path id="Fill-96_1_" sketch:type="MSShapeGroup" class="st0" d="M-368.9,513.4l-3.4-4.6h2.3v-4h2.3v4h2.3L-368.9,513.4
				L-368.9,513.4z"/>
		</g>
	</g>
</g>
</svg>
