<?xml version="1.0" encoding="UTF-8" standalone="no"?>
<svg width="40px" height="40px" viewBox="0 0 40 40" version="1.1" xmlns="http://www.w3.org/2000/svg" xmlns:xlink="http://www.w3.org/1999/xlink" xmlns:sketch="http://www.bohemiancoding.com/sketch/ns">
    <!-- Generator: Sketch 3.4.1 (15681) - http://www.bohemiancoding.com/sketch -->
    <title>in-transit-icon</title>
    <desc>Created with Sketch.</desc>
    <defs></defs>
    <g id="3" stroke="none" stroke-width="1" fill="none" fill-rule="evenodd" sketch:type="MSPage">
        <g id="in-transit-icon" sketch:type="MSArtboardGroup">
            <g id="Imported-Layers-4-+-Rectangle-11-Copy-4" sketch:type="MSLayerGroup">
                <rect id="Rectangle-11-Copy-2" sketch:type="MSShapeGroup" x="0" y="0" width="40" height="40"></rect>
                <g id="Imported-Layers-4" transform="translate(6.666667, 13.333333)" fill="#FFFFFF" opacity="0.4" sketch:type="MSShapeGroup">
                    <path d="M2.50059984,13.8725275 C2.48992269,13.8725275 2.46382298,13.8719281 2.45195948,13.8713287 L2.17079445,13.8719281 C1.42517329,13.8719281 0.818355105,13.2587413 0.818355105,12.5046953 L0.818355105,1.41278721 C0.818355105,0.658741259 1.42517329,0.0455544456 2.17079445,0.0455544456 L17.5494535,0.0455544456 C18.2944815,0.0455544456 18.9001133,0.690509491 18.9001133,1.44455544 L18.9001133,12.5040959 C18.9001133,13.2581419 18.2944815,13.8713287 17.5482671,13.8713287 L10.628879,13.8713287 C10.2717875,13.8653347 9.56768862,13.6423576 9.40871768,12.8361638 C9.05933751,11.5270729 7.8516329,10.5902098 6.47902559,10.5902098 C5.07438683,10.5902098 3.82753266,11.5966034 3.51552253,12.9818182 C3.44196881,13.583017 2.95141296,13.8725275 2.50059984,13.8725275 Z" id="Fill-1"></path>
                    <path d="M6.47902559,11.4857143 C7.6701213,11.4857143 8.63581045,12.4615385 8.63581045,13.6651349 C8.63581045,14.8687313 7.6701213,15.8445554 6.47902559,15.8445554 C5.28792989,15.8445554 4.32224074,14.8687313 4.32224074,13.6651349 C4.32224074,12.4615385 5.28792989,11.4857143 6.47902559,11.4857143" id="Fill-2"></path>
                    <path d="M24.2220808,11.4857143 C25.4131765,11.4857143 26.3788656,12.4615385 26.3788656,13.6651349 C26.3788656,14.8687313 25.4131765,15.8445554 24.2220808,15.8445554 C23.0303919,15.8445554 22.0652959,14.8687313 22.0652959,13.6651349 C22.0652959,12.4615385 23.0303919,11.4857143 24.2220808,11.4857143" id="Fill-3"></path>
                    <path d="M28.6252199,7.84795205 C28.6252199,7.84795205 28.5943748,7.15564436 28.5309051,6.81578422 C28.4775193,6.52747253 28.1744068,5.94125874 28.1744068,5.94125874 L25.7856905,1.44515485 C25.4736804,0.942257742 24.764836,0.54965035 24.2932618,0.54965035 L20.7205678,0.54965035 C20.2495868,0.54965035 19.8663956,0.935664336 19.8663956,1.41278721 L19.8663956,12.5040959 C19.8663956,12.9812188 20.2495868,13.3678322 20.7205678,13.3678322 L20.931145,13.3678322 C20.931145,13.3678322 21.2413756,13.3270729 21.357638,12.9344655 C21.6803252,11.6331668 22.8352373,10.6639361 24.2220808,10.6639361 C25.5786724,10.6639361 26.7140096,11.5924076 27.0645761,12.8517483 C27.2093109,13.3852148 27.7947747,13.3678322 27.7947747,13.3678322 C28.2669421,13.3678322 28.6483538,12.9812188 28.6483538,12.5040959 L28.6252199,7.84795205 L28.6252199,7.84795205 Z M26.1896428,6.400999 L22.4478939,6.400999 C22.1329179,6.400999 21.8754799,6.13966034 21.8754799,5.82257742 L21.8754799,2.86333666 C21.8754799,2.54445554 22.1329179,2.28491508 22.4478939,2.28491508 L23.7024593,2.28491508 C24.4172354,2.28491508 24.886437,2.86933067 25.0347307,3.14985015 L26.4903826,5.89150849 C26.6398627,6.17082917 26.5052119,6.400999 26.1896428,6.400999 L26.1896428,6.400999 Z" id="Fill-4"></path>
                </g>
            </g>
        </g>
    </g>
</svg>