<?xml version="1.0" encoding="UTF-8" standalone="no"?>
<svg width="40px" height="40px" viewBox="0 0 40 40" version="1.1" xmlns="http://www.w3.org/2000/svg" xmlns:xlink="http://www.w3.org/1999/xlink" xmlns:sketch="http://www.bohemiancoding.com/sketch/ns">
    <!-- Generator: Sketch 3.4.1 (15681) - http://www.bohemiancoding.com/sketch -->
    <title>just-shipped-icon</title>
    <desc>Created with Sketch.</desc>
    <defs></defs>
    <g id="3" stroke="none" stroke-width="1" fill="none" fill-rule="evenodd" sketch:type="MSPage">
        <g id="just-shipped-icon" sketch:type="MSArtboardGroup">
            <g id="Rectangle-11-+-JUST-SHIPPED-ICON-Copy-3" sketch:type="MSLayerGroup">
                <rect id="Rectangle-11" sketch:type="MSShapeGroup" x="0" y="0" width="40" height="40"></rect>
                <g id="JUST-SHIPPED-ICON-Copy" transform="translate(7.000000, 5.000000)" fill="#FFFFFF" opacity="0.400000006" sketch:type="MSShapeGroup">
                    <path d="M20.1551747,21.496475 C20.8037065,21.56141 21.4074656,21.6218182 22.0487349,21.6860111 C22.0487349,22.1625232 22.0489596,22.6246382 22.0486601,23.0867532 C22.0479862,24.5315028 22.0470129,25.9761781 22.0462642,27.4207792 C22.0458898,28.0277551 21.9423434,28.1444898 21.3313219,28.2657514 C18.9090981,28.7463451 16.4875482,29.2307236 14.0653993,29.7121336 C13.6944139,29.7858256 13.3216317,29.850167 12.9501971,29.9213358 C12.271043,30.0514286 11.6225112,29.8560297 10.9709096,29.7283859 C8.50825559,29.2464564 6.04769793,28.7526531 3.58646644,28.2633024 C3.01999312,28.1507236 2.90379346,28.0117254 2.90349398,27.4454174 C2.90259552,25.6247124 2.90184682,23.8040074 2.90102324,21.9833766 C2.90094836,21.8958071 2.90102324,21.8083117 2.90102324,21.6909833 C3.48374355,21.6291651 4.04520052,21.5656401 4.60748107,21.5105009 C5.95702926,21.3781076 7.30710155,21.2503896 8.65672461,21.1191095 C8.97425215,21.0882375 9.29761962,21.0790353 9.60713597,21.0104638 C10.2970714,20.8577365 10.7690577,20.4380705 11.0465293,19.7892393 C11.4549501,18.8342857 11.8781205,17.8856401 12.2955258,16.9344712 C12.3343838,16.8459369 12.3760869,16.75859 12.4644346,16.67718 C12.4644346,17.2437848 12.4645095,17.8103896 12.4644346,18.3769202 C12.463611,21.4246382 12.462488,24.4723562 12.4622633,27.52 C12.4621885,28.0022263 12.4651084,28.0085343 12.9502719,27.9209647 C15.2634836,27.5033766 17.5758718,27.0809647 19.8892332,26.6641187 C20.0980482,26.6264935 20.1579449,26.52 20.1570465,26.3160668 C20.1503081,24.8318367 20.154426,23.3476067 20.1551747,21.8633766 C20.1552496,21.7562152 20.1551747,21.6492022 20.1551747,21.496475" id="Fill-1"></path>
                    <path d="M12.4801575,12.9272727 C13.0919277,13.0437848 13.676969,13.1524304 14.2608124,13.2670872 C16.7525164,13.7562894 19.2433967,14.2499443 21.7361489,14.7337291 C22.0064329,14.7861967 22.1846256,14.9131725 22.3066652,15.1541373 C23.1157203,16.7524304 23.9328614,18.3467904 24.7366756,19.9476809 C24.7942513,20.0624119 24.8244991,20.2641187 24.7619819,20.344564 C24.6951222,20.4302783 24.4994096,20.4579592 24.3658399,20.4459369 C23.0252014,20.3255659 21.685611,20.1928757 20.3459458,20.0615955 C19.0559948,19.9352134 17.7661188,19.806679 16.4763176,19.6783673 C16.2084294,19.6517996 15.9415146,19.6144712 15.6731773,19.5959184 C15.4344888,19.5794434 15.2836988,19.4542486 15.1942281,19.2494249 C14.2924079,17.1826345 13.3925344,15.115102 12.4928107,13.0474212 C12.4854733,13.0305009 12.4883933,13.0092764 12.4801575,12.9272727" id="Fill-2"></path>
                    <path d="M12.4436954,12.9153989 C12.0710628,13.7683117 11.7313735,14.5460482 11.3914596,15.3236364 C10.8330723,16.6014842 10.2704923,17.8774768 9.71951721,19.1584416 C9.6016704,19.4325046 9.43470826,19.5776623 9.12234682,19.6061596 C7.54384337,19.7503525 5.96683735,19.9110204 4.38945697,20.0665677 C3.09980551,20.1938404 1.81090275,20.3268275 0.520277969,20.4431911 C0.380344234,20.4557328 0.183209122,20.4159555 0.102797762,20.3234879 C0.0411041308,20.2525417 0.0849036145,20.0421521 0.144051635,19.9246011 C0.944197074,18.3330612 1.75722031,16.7478293 2.561858,15.1584416 C2.6782074,14.9285343 2.84359725,14.7896846 3.10115318,14.7395918 C5.58327367,14.2562523 8.06457057,13.7685343 10.5462418,13.2826716 C11.1502255,13.1644527 11.7546583,13.0486827 12.4436954,12.9153989" id="Fill-3"></path>
                    <path d="M12.4097156,10.7142857 L8.14285714,4.92857143 L10.9808245,4.92857143 L10.9808245,0 L13.8571429,0 L13.8571429,4.92857143 L16.7142857,4.92857143 L12.4097156,10.7142857 Z" id="Fill-96"></path>
                </g>
            </g>
        </g>
    </g>
</svg>