<?xml version="1.0" encoding="UTF-8" standalone="no"?>
<svg width="40px" height="40px" viewBox="0 0 40 40" version="1.1" xmlns="http://www.w3.org/2000/svg" xmlns:xlink="http://www.w3.org/1999/xlink" xmlns:sketch="http://www.bohemiancoding.com/sketch/ns">
    <!-- Generator: Sketch 3.4.1 (15681) - http://www.bohemiancoding.com/sketch -->
    <title>mobile-icon</title>
    <desc>Created with Sketch.</desc>
    <defs></defs>
    <g id="3" stroke="none" stroke-width="1" fill="none" fill-rule="evenodd" sketch:type="MSPage">
        <g id="mobile-icon" sketch:type="MSArtboardGroup">
            <g id="Rectangle-298-Copy-2-+-icons-mobile-Copy-Copy" sketch:type="MSLayerGroup">
                <rect id="Rectangle-298-Copy-2" sketch:type="MSShapeGroup" x="0" y="0" width="40" height="40"></rect>
                <g id="icons-mobile" transform="translate(14.000000, 10.000000)" fill="#FFFFFF" sketch:type="MSShapeGroup">
                    <g id="Layer_1">
                        <path d="M12,0.75 L12,18.75 C12,19.125 11.625,19.5 11.25,19.5 L0.75,19.5 C0.375,19.5 0,19.125 0,18.75 L0,0.75 C0,0.375 0.375,0 0.75,0 L11.25,0 C11.625,0 12,0.375 12,0.75 L12,0.75 Z M10.5,1.5 L1.5,1.5 L1.5,15.75 L10.5,15.75 L10.5,1.5 L10.5,1.5 Z M6,16.5 C5.55,16.5 5.25,16.8 5.25,17.25 C5.25,17.7 5.55,18 6,18 C6.45,18 6.75,17.7 6.75,17.25 C6.75,16.8 6.45,16.5 6,16.5 L6,16.5 Z" id="Shape"></path>
                    </g>
                </g>
            </g>
        </g>
    </g>
</svg>