<?xml version="1.0" encoding="UTF-8" standalone="no"?>
<svg width="24px" height="24px" viewBox="0 0 24 24" version="1.1" xmlns="http://www.w3.org/2000/svg" xmlns:xlink="http://www.w3.org/1999/xlink" xmlns:sketch="http://www.bohemiancoding.com/sketch/ns">
    <!-- Generator: Sketch 3.4.1 (15681) - http://www.bohemiancoding.com/sketch -->
    <title>phone-icon</title>
    <desc>Created with Sketch.</desc>
    <defs>
        <rect id="path-1" x="0" y="0" width="24" height="24"></rect>
    </defs>
    <g id="action-bar" stroke="none" stroke-width="1" fill="none" fill-rule="evenodd" sketch:type="MSPage">
        <g id="phone-icon" sketch:type="MSArtboardGroup">
            <g id="Fill-1-Copy" sketch:type="MSLayerGroup">
                <mask id="mask-2" sketch:name="Mask" fill="white">
                    <use xlink:href="#path-1"></use>
                </mask>
                <use id="Mask" sketch:type="MSShapeGroup" xlink:href="#path-1"></use>
                <path d="M15.4860601,3 L8.25208531,3 C7.56026956,3 7,3.58818064 7,4.31128043 L7,19.6887196 C7,20.4134919 7.56026956,21 8.25208531,21 L15.4860601,21 C16.1794736,21 16.7397431,20.4134919 16.7397431,19.6887196 L16.7397431,4.31128043 C16.7397431,3.58818064 16.1794736,3 15.4860601,3 L15.4860601,3 L15.4860601,3 Z M11.0513028,4.11670693 L12.6884403,4.11670693 L12.6884403,4.6864895 L11.0513028,4.6864895 L11.0513028,4.11670693 L11.0513028,4.11670693 Z M11.8709367,20.3125813 C11.4304967,20.3125813 11.0715407,19.9384873 11.0715407,19.4763056 C11.0715407,19.0152388 11.4304967,18.6411448 11.8709367,18.6411448 C12.3108442,18.6411448 12.6682024,19.0152388 12.6682024,19.4763056 C12.6682024,19.9384873 12.3108442,20.3125813 11.8709367,20.3125813 L11.8709367,20.3125813 L11.8709367,20.3125813 Z M7.93893084,5.88682401 L15.8018775,5.88682401 L15.8018775,18.114291 L7.93893084,18.114291 L7.93893084,5.88682401 L7.93893084,5.88682401 Z" id="Fill-1" fill="#424242" sketch:type="MSShapeGroup" mask="url(#mask-2)"></path>
            </g>
        </g>
    </g>
</svg>