<?xml version="1.0" encoding="UTF-8" standalone="no"?>
<svg width="120px" height="48px" viewBox="0 0 120 48" version="1.1" xmlns="http://www.w3.org/2000/svg" xmlns:xlink="http://www.w3.org/1999/xlink" xmlns:sketch="http://www.bohemiancoding.com/sketch/ns">
    <!-- Generator: Sketch 3.4.1 (15681) - http://www.bohemiancoding.com/sketch -->
    <title>sms-icon</title>
    <desc>Created with Sketch.</desc>
    <defs>
        <rect id="path-1" x="0" y="0" width="120" height="48"></rect>
        <path d="M30.3465909,36.8385797 L30.6016043,36.8385797 L30.6016043,0 L0,0 L0,36.8385797 L7.90541444,36.8385797 L7.90541444,38.8851675 L30.3465909,38.8851675 L30.3465909,36.8385797 Z" id="path-3"></path>
        <path d="M30.3465909,31.7221103 L30.3465909,0 L1.38555833e-13,0 L1.38555833e-13,36.8385797 L8.09242424,36.8385797 L8.09242424,38.8851675 L30.3465909,38.8851675 L30.3465909,31.7221103 Z" id="path-5"></path>
    </defs>
    <g id="action-bar" stroke="none" stroke-width="1" fill="none" fill-rule="evenodd" sketch:type="MSPage">
        <g id="sms-icon" sketch:type="MSArtboardGroup">
            <g id="Group-Copy-5" sketch:type="MSLayerGroup">
                <mask id="mask-2" sketch:name="Mask" fill="white">
                    <use xlink:href="#path-1"></use>
                </mask>
                <use id="Mask" sketch:type="MSShapeGroup" xlink:href="#path-1"></use>
                <g id="Group-Copy" mask="url(#mask-2)">
                    <g transform="translate(8.000000, 3.000000)">
                        <g id="Rectangle-460-+-Rectangle-75-Copy-36" stroke-width="1" fill="none" sketch:type="MSLayerGroup" transform="translate(0.000000, 2.910287)">
                            <mask id="mask-4" sketch:name="Mask" fill="white">
                                <use xlink:href="#path-3"></use>
                            </mask>
                            <use id="Mask" sketch:type="MSShapeGroup" xlink:href="#path-3"></use>
                            <path d="M34.8119474,2.78552362 C34.8119474,1.54092453 33.8033472,0.529117351 32.5624044,0.529117351 L5.93777956,0.529117351 C4.6934013,0.529117351 3.6882365,1.53676593 3.6882365,2.78552362 L3.6882365,27.4261315 C3.6882365,28.6709951 4.69597658,29.6825377 5.93761677,29.6825377 L18.2039762,29.6825377 L17.453985,28.9361592 L17.4810428,34.5397899 C17.4840772,35.1682174 18.2123062,35.5144729 18.7016333,35.1201516 L25.6553754,29.5165209 L25.1847762,29.6825377 L32.5560563,29.6825377 C33.8032377,29.6825377 34.8119474,28.6755981 34.8119474,27.4261315 L34.8119474,2.78552362 L34.8119474,2.78552362 Z M33.3119474,2.78552362 L33.3119474,27.4261315 C33.3119474,27.8465806 32.9753997,28.1825377 32.5560563,28.1825377 L25.1847762,28.1825377 C25.0135583,28.1825377 24.8474947,28.2411213 24.7141769,28.3485546 L17.7604348,33.9521853 L18.9810253,34.532547 L18.9539675,28.9289163 C18.9519742,28.5161211 18.6167762,28.1825377 18.2039762,28.1825377 L5.93761677,28.1825377 C5.52567099,28.1825377 5.1882365,27.84383 5.1882365,27.4261315 L5.1882365,2.78552362 C5.1882365,2.36436548 5.52265826,2.02911735 5.93777956,2.02911735 L32.5624044,2.02911735 C32.9738522,2.02911735 33.3119474,2.36828756 33.3119474,2.78552362 L33.3119474,2.78552362 Z" id="Shape" fill="#424242" sketch:type="MSShapeGroup" mask="url(#mask-4)"></path>
                        </g>
                        <g id="Rectangle-460-+-Rectangle-75-Copy-37" stroke-width="1" fill="none" sketch:type="MSLayerGroup" transform="translate(73.698864, 2.910287)">
                            <mask id="mask-6" sketch:name="Mask" fill="white">
                                <use xlink:href="#path-5"></use>
                            </mask>
                            <use id="Mask" sketch:type="MSShapeGroup" transform="translate(15.173295, 19.442584) scale(-1, 1) translate(-15.173295, -19.442584) " xlink:href="#path-5"></use>
                            <path d="M25.3608985,2.84237328 C25.3608985,1.59680365 24.3569615,0.585967011 23.113709,0.585967011 L-3.26875858,0.585967011 C-4.51209922,0.585967011 -5.51594814,1.59387835 -5.51594814,2.84237328 L-5.51594814,27.4829811 C-5.51594814,28.7269856 -4.50537676,29.7393874 -3.26600021,29.7393874 L8.88507708,29.7393874 L8.13508568,28.9929786 L8.16191804,34.5966094 C8.1649341,35.226479 8.89606595,35.5723004 9.38489448,35.1750707 L16.2806887,29.5714399 L15.8077037,29.7393874 L23.1175565,29.7393874 C24.3592027,29.7393874 25.3608985,28.7310466 25.3608985,27.4829811 L25.3608985,2.84237328 L25.3608985,2.84237328 Z M23.8608985,2.84237328 L23.8608985,27.4829811 C23.8608985,27.9048315 23.5285474,28.2393874 23.1175565,28.2393874 L15.8077037,28.2393874 C15.6354327,28.2393874 15.468413,28.2986927 15.3347187,28.4073348 L8.43892441,34.0109656 L9.66190084,34.5894269 L9.63506848,28.9857961 C9.6330918,28.5729891 9.29788886,28.2393874 8.88507708,28.2393874 L-3.26600021,28.2393874 C-3.67634138,28.2393874 -4.01594814,27.8991655 -4.01594814,27.4829811 L-4.01594814,2.84237328 C-4.01594814,2.42095238 -3.68231294,2.08596701 -3.26875858,2.08596701 L23.113709,2.08596701 C23.5262259,2.08596701 23.8608985,2.42293971 23.8608985,2.84237328 L23.8608985,2.84237328 Z" id="Shape" fill="#424242" sketch:type="MSShapeGroup" mask="url(#mask-6)"></path>
                        </g>
                        <g id="Rectangle-11-+-JUST-SHIPPED-ICON-Copy-8" stroke-width="1" fill="none" sketch:type="MSLayerGroup" transform="translate(6.502841, 5.070574)">
                            <rect id="Rectangle-11" sketch:type="MSShapeGroup" x="0" y="0" width="26.0113636" height="25.923445"></rect>
                            <g id="JUST-SHIPPED-ICON-Copy" transform="translate(4.877131, 3.240431)" fill="#424242" sketch:type="MSShapeGroup">
                                <path d="M13.1065895,13.9315671 C13.5283194,13.9736507 13.9209343,14.0128003 14.3379416,14.0544029 C14.3379416,14.3632238 14.3380876,14.6627141 14.3378929,14.9622044 C14.3374547,15.8985266 14.3368217,16.8348006 14.3363349,17.7710265 C14.3360914,18.1643992 14.2687568,18.2400533 13.8714192,18.3186413 C12.2962857,18.6301074 10.7215903,18.9440263 9.1465054,19.2560215 C8.90525952,19.3037803 8.66284514,19.345479 8.42130713,19.3916026 C7.97966406,19.4759139 7.55793412,19.3492786 7.134208,19.2665544 C5.53278325,18.9542226 3.93272175,18.6341955 2.33222207,18.3170541 C1.96385348,18.2440933 1.88829069,18.1540106 1.88809594,17.7869942 C1.88751169,16.6070206 1.88702482,15.4270469 1.88648926,14.2471214 C1.88644057,14.1903687 1.88648926,14.1336642 1.88648926,14.0576253 C2.265423,14.0175618 2.63052954,13.9763921 2.99617164,13.9406572 C3.87376136,13.8548549 4.75169189,13.7720826 5.6293303,13.6870018 C5.8358134,13.6669941 6.04609412,13.6610303 6.24736768,13.6165901 C6.69602173,13.5176096 7.00294687,13.2456299 7.18338224,12.8251314 C7.4489718,12.2062392 7.72415278,11.5914352 7.99558483,10.9749958 C8.02085357,10.917618 8.04797243,10.8610096 8.10542352,10.8082489 C8.10542352,11.1754577 8.10547221,11.5426664 8.10542352,11.909827 C8.10488796,13.8850108 8.10415765,15.8601945 8.10401159,17.8353301 C8.1039629,18.1478543 8.10586171,18.1519425 8.42135582,18.0951898 C9.92560059,17.8245568 11.4293098,17.5507975 12.9336519,17.2806454 C13.069441,17.256261 13.1083909,17.187244 13.1078066,17.0550777 C13.1034248,16.0931688 13.1061026,15.1312599 13.1065895,14.169351 C13.1066381,14.0999012 13.1065895,14.0305476 13.1065895,13.9315671" id="Fill-1"></path>
                                <path d="M8.11564787,8.37798608 C8.51347231,8.45349593 8.89391536,8.52390766 9.27357942,8.59821512 C10.8938949,8.9152603 12.5136747,9.2351912 14.1346718,9.54872541 C14.3104332,9.58272889 14.4263091,9.6650202 14.5056695,9.82118611 C15.0317852,10.8570177 15.563159,11.8903003 16.0858666,12.9278152 C16.1233072,13.0021708 16.1429769,13.1328942 16.1023229,13.1850296 C16.0588451,13.2405799 15.9315763,13.2585195 15.8447181,13.250728 C14.9729221,13.1727172 14.1018078,13.0867226 13.2306449,13.0016417 C12.3918103,12.9197352 11.5530244,12.8364339 10.7142872,12.7532768 C10.5400838,12.7360587 10.3665133,12.7118667 10.1920178,12.6998428 C10.0368025,12.6891656 9.93874618,12.6080286 9.88056478,12.4752852 C9.29412549,11.135827 8.70895207,9.7958879 8.12387603,8.45585261 C8.11910467,8.44488685 8.12100348,8.43113155 8.11564787,8.37798608" id="Fill-2"></path>
                                <path d="M8.09193712,8.37029081 C7.84962011,8.92305176 7.62872555,9.42709203 7.40768492,9.9310361 C7.04457457,10.7591916 6.67873772,11.5861447 6.32044741,12.4163201 C6.2438135,12.5939366 6.13524068,12.6880113 5.93211701,12.70648 C4.90564133,12.7999294 3.8801394,12.904056 2.85439404,13.0048641 C2.01575421,13.0873478 1.17760125,13.1735348 0.338328486,13.2489485 C0.247331804,13.2570766 0.119137977,13.2312975 0.0668477495,13.1713705 C0.0267293623,13.1253913 0.0552114697,12.9890407 0.0936744866,12.9128575 C0.613996336,11.8814026 1.14269241,10.8540358 1.6659355,9.82397564 C1.74159567,9.67497595 1.84914605,9.58498937 2.01663058,9.55252495 C3.63071404,9.23927931 5.24426194,8.92319605 6.85805328,8.60831517 C7.25081424,8.53169912 7.64386732,8.45667023 8.09193712,8.37029081" id="Fill-3"></path>
                                <path d="M8.0698406,6.9437799 L5.29517045,3.19413876 L7.14065551,3.19413876 L7.14065551,0 L9.01107955,0 L9.01107955,3.19413876 L10.8690341,3.19413876 L8.0698406,6.9437799 Z" id="Fill-96"></path>
                            </g>
                        </g>
                        <path d="M71.1974432,2.7836036 C71.1974432,1.54527121 70.1878556,0.54007177 68.9503425,0.54007177 L35.7652293,0.54007177 C34.5239252,0.54007177 33.5181287,1.54232423 33.5181287,2.7836036 L33.5181287,30.3334794 C33.5181287,31.5706154 34.5291807,32.5770112 35.7631269,32.5770112 L49.5692778,32.5770112 L48.8192867,31.8306564 L48.8493625,38.0185974 C48.8524114,38.6458978 49.5783736,38.9924873 50.0680809,38.6004389 L57.7974327,32.412498 L57.3287054,32.5770112 L68.9425572,32.5770112 C70.1873006,32.5770112 71.1974432,31.5756354 71.1974432,30.3334794 L71.1974432,2.7836036 L71.1974432,2.7836036 Z M69.6974432,2.7836036 L69.6974432,30.3334794 C69.6974432,30.7442673 69.3617862,31.0770112 68.9425572,31.0770112 L57.3287054,31.0770112 C57.1583113,31.0770112 56.9929962,31.1350333 56.8599782,31.2415244 L49.1306264,37.4294654 L50.3493448,38.0113069 L50.3192689,31.8233659 C50.3172626,31.4105801 49.9820685,31.0770112 49.5692778,31.0770112 L35.7631269,31.0770112 C35.3560618,31.0770112 35.0181287,30.7406344 35.0181287,30.3334794 L35.0181287,2.7836036 C35.0181287,2.37193894 35.3511693,2.04007177 35.7652293,2.04007177 L68.9503425,2.04007177 C69.3608876,2.04007177 69.6974432,2.3751645 69.6974432,2.7836036 L69.6974432,2.7836036 Z" id="Shape" fill="#424242" sketch:type="MSShapeGroup"></path>
                        <path d="M92.8006082,15.571034 L92.8006082,15.5631251 L92.7961454,15.5631251 L91.3131789,12.9046539 C91.185991,12.7330758 90.9831598,12.6315789 90.7673866,12.6315789 L80.3781419,12.6315789 C80.1744181,12.6315789 79.981628,12.7220913 79.8533244,12.8778517 L78.1849313,15.5629054 C78.0874206,15.6815382 78.0340909,15.8293897 78.0340909,15.9820744 L78.0340909,25.1682009 L78.9103487,25.2345473 L92.8006082,25.2345473 L92.8006082,24.5398869 C92.8829456,24.3748995 92.9304737,24.1899204 92.9304737,23.993737 L92.9304737,15.963181 C92.9304737,15.8221399 92.8849538,15.6848335 92.8006082,15.571034 L92.8006082,15.571034 Z M80.5066687,13.5103398 L90.6328351,13.5103398 L90.973788,14.1217377 L80.1266669,14.1217377 L80.5066687,13.5103398 L80.5066687,13.5103398 Z M83.9369491,23.3788241 L81.1408232,20.7328752 L81.9813791,19.8719093 L83.8604132,21.6496424 L88.1133987,16.8573202 L89.0269203,17.6431521 L83.9369491,23.3788241 L83.9369491,23.3788241 Z M79.2312193,15.5631251 L79.717211,14.7808083 L91.2178996,14.7808083 L91.2178996,14.5593606 L91.7777495,15.5631251 L79.2312193,15.5631251 L79.2312193,15.5631251 Z" id="Imported-Layers-Copy" fill="#424242" sketch:type="MSShapeGroup"></path>
                        <g id="Imported-Layers-Copy" stroke-width="1" fill="none" sketch:type="MSLayerGroup" transform="translate(40.920772, 9.931220)">
                            <path d="M19.8461381,11.4294258 C20.5148279,11.4294258 21.0587595,11.9683672 21.0587595,12.6309223 C21.0587595,13.2934773 20.5148279,13.8325945 19.8461381,13.8325945 C19.1774482,13.8325945 18.6335167,13.2934773 18.6335167,12.6309223 C18.6335167,11.9683672 19.1774482,11.4294258 19.8461381,11.4294258 M19.8461381,10.1985646 C18.4903021,10.1985646 17.3912586,11.2875251 17.3912586,12.6309223 C17.3912586,13.9743194 18.4903021,15.0634557 19.8461381,15.0634557 C21.201974,15.0634557 22.3010175,13.9743194 22.3010175,12.6309223 C22.3010175,11.2875251 21.201974,10.1985646 19.8461381,10.1985646" id="Fill-1" fill="#424242" sketch:type="MSShapeGroup"></path>
                            <path d="M6.18165379,11.4294258 C6.85034362,11.4294258 7.39445266,11.9683672 7.39445266,12.6309223 C7.39445266,13.2934773 6.85034362,13.8325945 6.18165379,13.8325945 C5.512964,13.8325945 4.96903243,13.2934773 4.96903243,12.6309223 C4.96903243,11.9683672 5.512964,11.4294258 6.18165379,11.4294258 M6.18165379,10.1985646 C4.82581781,10.1985646 3.72677432,11.2875251 3.72677432,12.6309223 C3.72677432,13.9743194 4.82581781,15.0634557 6.18165379,15.0634557 C7.5374898,15.0634557 8.63671075,13.9743194 8.63671075,12.6309223 C8.63671075,11.2875251 7.5374898,10.1985646 6.18165379,10.1985646" id="Fill-2" fill="#424242" sketch:type="MSShapeGroup"></path>
                            <path d="M0.146763922,0.552656699 L0.146763922,11.5152345 C0.146763922,11.8076519 0.386164806,12.0448564 0.681289839,12.0448564 L3.1979273,12.0448564 C3.48524385,10.6566208 4.72501744,9.61249879 6.21111305,9.61249879 C7.69720868,9.61249879 8.93715973,10.6566208 9.22447631,12.0448564 L16.8295804,12.0448564 L16.8295804,1.23297129 C16.8295804,0.551953349 16.2725164,0 15.5851927,0 L0.704537813,0 C0.396457802,0 0.146763922,0.24740311 0.146763922,0.552656699" id="Fill-3" fill="#424242" sketch:type="MSShapeGroup"></path>
                            <path d="M22.252392,4.06289713 C22.0429828,3.79492105 21.72319,3.63385407 21.3810367,3.63385407 L17.3319851,3.63385407 L17.3319851,10.9465765 C17.8856773,10.1414174 18.8180807,9.61249879 19.8755973,9.61249879 C21.3508676,9.61249879 22.5823003,10.6420263 22.8811521,12.0153158 L23.5791237,12.0153158 C23.7553469,12.0153158 23.8982065,11.8737667 23.8982065,11.6991603 L23.8982065,7.38499165 C23.8982065,7.38499165 23.4089343,5.54274401 22.252392,4.06289713 L22.252392,4.06289713 L22.252392,4.06289713 Z M18.6335167,6.27158969 L18.6335167,4.40331818 L21.5911558,4.40331818 C22.1828255,4.92344498 22.7152219,6.27158969 22.7152219,6.27158969 L18.6335167,6.27158969 L18.6335167,6.27158969 Z" id="Fill-4" fill="#424242" sketch:type="MSShapeGroup"></path>
                        </g>
                    </g>
                </g>
            </g>
        </g>
    </g>
</svg>