<?xml version="1.0" encoding="UTF-8" standalone="no"?>
<svg width="40px" height="40px" viewBox="0 0 40 40" version="1.1" xmlns="http://www.w3.org/2000/svg" xmlns:xlink="http://www.w3.org/1999/xlink" xmlns:sketch="http://www.bohemiancoding.com/sketch/ns">
    <!-- Generator: Sketch 3.4.1 (15681) - http://www.bohemiancoding.com/sketch -->
    <title>tablet-icon</title>
    <desc>Created with Sketch.</desc>
    <defs></defs>
    <g id="3" stroke="none" stroke-width="1" fill="none" fill-rule="evenodd" sketch:type="MSPage">
        <g id="tablet-icon" sketch:type="MSArtboardGroup">
            <g id="Rectangle-298-Copy-+-icons-tablet-Copy-Copy" sketch:type="MSLayerGroup">
                <rect id="Rectangle-298-Copy" sketch:type="MSShapeGroup" x="0" y="0" width="40" height="40"></rect>
                <g id="icons-tablet" transform="translate(11.000000, 9.000000)" fill="#FFFFFF" sketch:type="MSShapeGroup">
                    <g id="Layer_1">
                        <path d="M18,0.75 L18,21.75 C18,22.125 17.625,22.5 17.25,22.5 L0.75,22.5 C0.375,22.5 0,22.125 0,21.75 L0,0.75 C0,0.375 0.375,0 0.75,0 L17.25,0 C17.625,0 18,0.375 18,0.75 L18,0.75 Z M1.5,18.75 L16.5,18.75 L16.5,1.5 L1.5,1.5 L1.5,18.75 L1.5,18.75 Z M12,20.625 L12,20.625 C12,20.4 11.85,20.25 11.625,20.25 L6.375,20.25 C6.15,20.25 6,20.4 6,20.625 L6,20.625 C6,20.85 6.15,21 6.375,21 L11.625,21 C11.85,21 12,20.85 12,20.625 L12,20.625 Z" id="Shape"></path>
                    </g>
                </g>
            </g>
        </g>
    </g>
</svg>