<?xml version="1.0" encoding="UTF-8" standalone="no"?>
<svg width="264px" height="80px" viewBox="0 0 264 80" version="1.1" xmlns="http://www.w3.org/2000/svg" xmlns:xlink="http://www.w3.org/1999/xlink" xmlns:sketch="http://www.bohemiancoding.com/sketch/ns">
    <!-- Generator: Sketch 3.3.3 (12072) - http://www.bohemiancoding.com/sketch -->
    <title>reebok_statusicon_delay</title>
    <desc>Created with Sketch.</desc>
    <defs></defs>
    <g id="Page-1" stroke="none" stroke-width="1" fill="none" fill-rule="evenodd" sketch:type="MSPage">
        <g id="reebok_statusicon_delay" sketch:type="MSArtboardGroup">
            <path d="M39.5,34 C35.91,34 33,36.91 33,40.5 C33,44.09 35.91,47 39.5,47 C43.09,47 46,44.09 46,40.5 C46,36.91 43.09,34 39.5,34" id="Imported-Layers" fill="#727269" sketch:type="MSShapeGroup"></path>
            <path d="M226.5,36 C228.981,36 231,38.019 231,40.5 C231,42.981 228.981,45 226.5,45 C224.019,45 222,42.981 222,40.5 C222,38.019 224.019,36 226.5,36 M226.5,34 C222.91,34 220,36.91 220,40.5 C220,44.09 222.91,47 226.5,47 C230.09,47 233,44.09 233,40.5 C233,36.91 230.09,34 226.5,34" id="Imported-Layers" fill="#727269" sketch:type="MSShapeGroup"></path>
            <g id="dashed-line" sketch:type="MSLayerGroup" transform="translate(167.000000, 40.000000)" fill="#727269">
                <path d="M48,0 L50.038,0 L50.038,2 L48,2 L48,0 Z" id="Fill-9" sketch:type="MSShapeGroup"></path>
                <path d="M44,0 L46.039,0 L46.039,2 L44,2 L44,0 Z" id="Fill-10" sketch:type="MSShapeGroup"></path>
                <path d="M40,0 L42.039,0 L42.039,2 L40,2 L40,0 Z" id="Fill-11" sketch:type="MSShapeGroup"></path>
                <path d="M36,0 L38.038,0 L38.038,2 L36,2 L36,0 Z" id="Fill-12" sketch:type="MSShapeGroup"></path>
                <path d="M32,0 L34.039,0 L34.039,2 L32,2 L32,0 Z" id="Fill-13" sketch:type="MSShapeGroup"></path>
                <path d="M28,0 L30.039,0 L30.039,2 L28,2 L28,0 Z" id="Fill-14" sketch:type="MSShapeGroup"></path>
                <path d="M24,0 L26.039,0 L26.039,2 L24,2 L24,0 Z" id="Fill-15" sketch:type="MSShapeGroup"></path>
                <path d="M20,0 L22.039,0 L22.039,2 L20,2 L20,0 Z" id="Fill-16" sketch:type="MSShapeGroup"></path>
                <path d="M16,0 L18.039,0 L18.039,2 L16,2 L16,0 Z" id="Fill-17" sketch:type="MSShapeGroup"></path>
                <path d="M12,0 L14.039,0 L14.039,2 L12,2 L12,0 Z" id="Fill-18" sketch:type="MSShapeGroup"></path>
                <path d="M8,0 L10.039,0 L10.039,2 L8,2 L8,0 Z" id="Fill-19" sketch:type="MSShapeGroup"></path>
                <path d="M4,0 L6.039,0 L6.039,2 L4,2 L4,0 Z" id="Fill-20" sketch:type="MSShapeGroup"></path>
                <path d="M0,0 L2.039,0 L2.039,2 L0,2 L0,0 Z" id="Fill-21" sketch:type="MSShapeGroup"></path>
            </g>
            <g id="Imported-Layers-Copy-2" sketch:type="MSLayerGroup" transform="translate(106.000000, 23.000000)" fill="#6B6C61">
                <path d="M50.207,13.793 L41.207,4.793 C41.019,4.606 40.766,4.5 40.5,4.5 L40.499,4.5 L37,4.504 L37,3.25 C37,1.458 35.542,0 33.75,0 L9,0 L9,2 L33.75,2 C34.439,2 35,2.56 35,3.252 L35,16.749 C35,17.439 34.439,18 33.75,18 L9,18 L9,20 L33.75,19.999 C35.542,19.999 37,18.542 37,16.747 L37,6.504 L40.086,6.5 L48.5,14.914 L48.5,25.75 C48.5,26.439 47.939,27 47.25,27 L45.904,27 C45.432,24.444 43.19,22.5 40.5,22.5 C37.81,22.5 35.568,24.444 35.096,27 L27.904,27 C27.432,24.444 25.19,22.5 22.5,22.5 C19.81,22.5 17.568,24.444 17.096,27 L13.5,27 L13.5,29 L17.096,29 C17.568,31.556 19.81,33.5 22.5,33.5 C25.19,33.5 27.432,31.556 27.904,29 L35.096,29 C35.568,31.556 37.81,33.5 40.5,33.5 C43.19,33.5 45.432,31.556 45.904,29 L47.25,29 C49.042,29 50.5,27.542 50.5,25.748 L50.5,14.5 C50.5,14.235 50.394,13.981 50.207,13.793 L50.207,13.793 Z M22.5,31.5 C20.57,31.5 19,29.93 19,28 C19,26.07 20.57,24.5 22.5,24.5 C24.43,24.5 26,26.07 26,28 C26,29.93 24.43,31.5 22.5,31.5 L22.5,31.5 Z M40.5,31.5 C38.57,31.5 37,29.93 37,28 C37,26.07 38.57,24.5 40.5,24.5 C42.43,24.5 44,26.07 44,28 C44,29.93 42.43,31.5 40.5,31.5 L40.5,31.5 Z" id="Fill-1" sketch:type="MSShapeGroup"></path>
                <path d="M4.5,13.5 L22.5,13.5 L22.5,15.5 L4.5,15.5 L4.5,13.5 Z" id="Fill-2" sketch:type="MSShapeGroup"></path>
                <path d="M0.06,9 L18,9 L18,11 L0.06,11 L0.06,9 Z" id="Fill-3" sketch:type="MSShapeGroup"></path>
            </g>
            <path d="M133.25,6 C126.634,6 120.475,7.94 115.295,11.272 L116.302,13.016 C121.187,9.848 127.006,8 133.25,8 C150.481,8 164.5,22.019 164.5,39.25 C164.5,56.481 150.481,70.5 133.25,70.5 C116.019,70.5 102,56.481 102,39.25 C102,35.177 102.791,31.288 104.215,27.717 L102.058,27.717 C100.728,31.31 100,35.194 100,39.25 C100,57.613 114.887,72.5 133.25,72.5 C151.613,72.5 166.5,57.613 166.5,39.25 C166.5,20.887 151.613,6 133.25,6" id="Imported-Layers-Copy" fill="#727269" sketch:type="MSShapeGroup"></path>
            <path d="M40,39 L100,39 L100,41 L40,41 L40,39 Z" id="Fill-21-Copy" fill="#727269" sketch:type="MSShapeGroup"></path>
            <polygon id="Triangle-1" stroke="#727269" stroke-width="2" fill="#FFFFFF" sketch:type="MSShapeGroup" points="110.538399 2.39095673 123.507812 27.8768989 97.5689861 27.8768989 "></polygon>
            <path d="M110.795932,22.5091888 C111.468557,22.5091888 112.039903,23.0427181 112.039903,23.7744154 C112.039903,24.5213565 111.468557,25.0548858 110.795932,25.0548858 C110.123307,25.0548858 109.565172,24.5213565 109.565172,23.7744154 C109.565172,23.0427181 110.123307,22.5091888 110.795932,22.5091888 L110.795932,22.5091888 Z" id="Path" fill="#727269" sketch:type="MSShapeGroup"></path>
            <path d="M111.912203,13.3995435 L111.62598,20.7317604 L109.994507,20.7317604 L109.708284,13.3995435 L111.912203,13.3995435 L111.912203,13.3995435 Z" id="Path" fill="#727269" sketch:type="MSShapeGroup"></path>
        </g>
    </g>
</svg>