<?xml version="1.0" encoding="UTF-8" standalone="no"?>
<svg width="34px" height="40px" viewBox="0 0 34 40" version="1.1" xmlns="http://www.w3.org/2000/svg" xmlns:xlink="http://www.w3.org/1999/xlink" xmlns:sketch="http://www.bohemiancoding.com/sketch/ns">
    <!-- Generator: Sketch 3.4 (15588) - http://www.bohemiancoding.com/sketch -->
    <title>JUST-SHIPPED-ICON-Copy</title>
    <desc>Created with Sketch.</desc>
    <defs></defs>
    <g id="Page-1" stroke="none" stroke-width="1" fill="none" fill-rule="evenodd" sketch:type="MSPage">
        <g id="Artboard-1" sketch:type="MSArtboardGroup" transform="translate(-52.000000, -335.000000)" fill="#FFFFFF">
            <g id="PAGE-MODE" sketch:type="MSLayerGroup" transform="translate(-1067.000000, 296.000000)">
                <g id="JUST-SHIPPED-ICON-Copy" transform="translate(0.000000, 39.000000)" sketch:type="MSShapeGroup">
                    <g id="2" transform="translate(1119.000000, 0.000000)">
                        <g id="template_just_shipped_desktop---no-edd">
                            <g id="Rectangle-11-+-JUST-SHIPPED-ICON-Copy">
                                <g id="JUST-SHIPPED-ICON-Copy">
                                    <path d="M16.64021,17.2363636 C17.4559036,17.391713 18.2359587,17.5365739 19.0144165,17.6894496 C22.3366885,18.3417192 25.6578623,18.9999258 28.9815318,19.6449722 C29.3419105,19.7149289 29.5795009,19.8842301 29.7422203,20.2055164 C30.8209604,22.3365739 31.9104819,24.4623871 32.9822341,26.5969079 C33.0590017,26.7498825 33.0993322,27.018825 33.0159759,27.1260853 C32.9268296,27.2403711 32.6658795,27.2772789 32.4877866,27.2612492 C30.7002685,27.1007545 28.914148,26.9238343 27.1279277,26.7487941 C25.4079931,26.5802845 23.6881583,26.4089054 21.9684234,26.2378231 C21.6112392,26.2023995 21.2553528,26.1526283 20.8975697,26.1278912 C20.5793184,26.1059246 20.3782651,25.9389981 20.2589707,25.6658998 C19.0565439,22.9101793 17.8567126,20.1534694 16.6570809,17.3965615 C16.6472978,17.3740012 16.651191,17.3457019 16.64021,17.2363636" id="Fill-2"></path>
                                    <path d="M16.5915938,17.2205318 C16.0947504,18.3577489 15.6418313,19.394731 15.1886127,20.4315152 C14.4440964,22.1353123 13.6939897,23.8366357 12.9593563,25.5445887 C12.8022272,25.9100062 12.579611,26.1035498 12.1631291,26.1415461 C10.0584578,26.3338033 7.95578313,26.5480272 5.85260929,26.7554236 C4.13307401,26.9251206 2.41453701,27.1024366 0.693703959,27.2575881 C0.507125645,27.2743105 0.24427883,27.221274 0.137063683,27.0979839 C0.0548055077,27.003389 0.113204819,26.7228695 0.192068847,26.5661348 C1.25892943,24.4440816 2.34296041,22.3304391 3.41581067,20.2112554 C3.5709432,19.9047124 3.79146299,19.7195795 4.13487091,19.6527891 C7.44436489,19.0083364 10.7527608,18.3580458 14.0616558,17.7102288 C14.8669673,17.5526036 15.6728778,17.3982437 16.5915938,17.2205318" id="Fill-3"></path>
                                    <path d="M16.5462874,14.2857143 L10.8571429,6.57142857 L14.6410994,6.57142857 L14.6410994,0 L18.4761905,0 L18.4761905,6.57142857 L22.2857143,6.57142857 L16.5462874,14.2857143 L16.5462874,14.2857143 Z" id="Fill-96"></path>
                                    <path d="M26.8735663,28.6619666 C27.7382754,28.7485467 28.5432874,28.8290909 29.3983133,28.9146815 C29.3983133,29.5500309 29.3986127,30.1661843 29.3982134,30.7823377 C29.397315,32.7086704 29.3960172,34.6349041 29.3950189,36.561039 C29.3945198,37.3703401 29.2564578,37.5259864 28.4417625,37.6876685 C25.2121308,38.3284601 21.9833976,38.9742981 18.7538657,39.6161781 C18.2592186,39.7144341 17.7621756,39.8002226 17.2669294,39.8951144 C16.3613907,40.0685714 15.4966816,39.8080396 14.6278795,39.6378479 C11.3443408,38.9952752 8.06359725,38.3368707 4.78195525,37.6844032 C4.02665749,37.5342981 3.87172461,37.3489672 3.8713253,36.5938899 C3.87012737,34.1662832 3.86912909,31.7386766 3.86803098,29.3111688 C3.86793115,29.1944094 3.86803098,29.0777489 3.86803098,28.9213111 C4.64499139,28.8388868 5.39360069,28.7541868 6.14330809,28.6806679 C7.94270568,28.5041435 9.74280207,28.3338528 11.5422995,28.1588126 C11.9656695,28.11765 12.3968262,28.1053803 12.8095146,28.0139518 C13.7294286,27.8103154 14.3587435,27.2507607 14.7287057,26.3856524 C15.2732668,25.112381 15.837494,23.8475201 16.3940344,22.579295 C16.4458451,22.4612492 16.5014492,22.3447866 16.6192461,22.23624 C16.6192461,22.991713 16.619346,23.7471861 16.6192461,24.5025603 C16.618148,28.5661843 16.6166506,32.6298083 16.6163511,36.6933333 C16.6162513,37.3363018 16.6201446,37.3447124 17.2670293,37.227953 C20.3513115,36.6711688 23.4344957,36.107953 26.5189776,35.5521583 C26.7973976,35.5019913 26.8772599,35.36 26.876062,35.0880891 C26.8670775,33.1091156 26.872568,31.1301422 26.8735663,29.1511688 C26.8736661,29.008287 26.8735663,28.865603 26.8735663,28.6619666" id="Fill-1-path"></path>
                                </g>
                            </g>
                        </g>
                    </g>
                </g>
            </g>
        </g>
    </g>
</svg>