<?xml version="1.0" encoding="utf-8"?>
<!-- Generator: Adobe Illustrator 19.1.0, SVG Export Plug-In . SVG Version: 6.00 Build 0)  -->
<svg version="1.1" id="Layer_1" xmlns="http://www.w3.org/2000/svg" xmlns:xlink="http://www.w3.org/1999/xlink" x="0px" y="0px"
	 viewBox="0 0 40 40" style="enable-background:new 0 0 40 40;" xml:space="preserve">
<style type="text/css">
	.st0{fill:#FFFFFF;}
</style>
<path class="st0" d="M32,6v28c0,0.5-0.5,1-1,1H9c-0.5,0-1-0.5-1-1V6c0-0.5,0.5-1,1-1h22C31.5,5,32,5.5,32,6z M10,30h20V7H10V30z
	 M24,32.5L24,32.5c0-0.3-0.2-0.5-0.5-0.5h-7c-0.3,0-0.5,0.2-0.5,0.5l0,0c0,0.3,0.2,0.5,0.5,0.5h7C23.8,33,24,32.8,24,32.5z"/>
</svg>
