<?xml version="1.0" encoding="utf-8"?>
<!-- Generator: Adobe Illustrator 19.1.0, SVG Export Plug-In . SVG Version: 6.00 Build 0)  -->
<svg version="1.1" id="Layer_1" xmlns="http://www.w3.org/2000/svg" xmlns:xlink="http://www.w3.org/1999/xlink" x="0px" y="0px"
	 viewBox="0 0 40 40" style="enable-background:new 0 0 40 40;" xml:space="preserve">
<style type="text/css">
	.st0{fill:#FFFFFF;}
</style>
<path class="st0" d="M38,8v20c0,0.5-0.5,1-1,1H24v2h4c0.5,0,1,0.5,1,1s-0.5,1-1,1H12c-0.5,0-1-0.5-1-1s0.5-1,1-1h4v-2H3
	c-0.5,0-1-0.5-1-1V8c0-0.5,0.5-1,1-1h34C37.5,7,38,7.5,38,8z M36,9H4v18h32V9z"/>
</svg>
