<?xml version="1.0" encoding="UTF-8" standalone="no"?>
<svg width="172px" height="35px" viewBox="0 0 172 35" version="1.1" xmlns="http://www.w3.org/2000/svg" xmlns:xlink="http://www.w3.org/1999/xlink" xmlns:sketch="http://www.bohemiancoding.com/sketch/ns">
    <!-- Generator: Sketch 3.4 (15588) - http://www.bohemiancoding.com/sketch -->
    <title>NARVAR</title>
    <desc>Created with Sketch.</desc>
    <defs></defs>
    <g id="Page-1" stroke="none" stroke-width="1" fill="none" fill-rule="evenodd" sketch:type="MSPage">
        <g id="Artboard-1" sketch:type="MSArtboardGroup" transform="translate(-23.000000, -24.000000)" fill="#FFFFFF">
            <g id="BRANDING" sketch:type="MSLayerGroup" transform="translate(-12.000000, 24.000000)">
                <g id="NARVAR" transform="translate(35.000000, 0.000000)" sketch:type="MSShapeGroup">
                    <path d="M56.97,7.999 C58.262,7.999 59.478,8.253 60.618,8.76 C61.758,9.266 62.765,9.957 63.639,10.831 C64.513,11.705 65.203,12.711 65.71,13.852 C66.217,14.992 66.47,16.208 66.47,17.5 L66.47,27 L64.57,27 L64.57,17.5 C64.57,16.462 64.367,15.48 63.962,14.555 C63.557,13.63 63.012,12.825 62.328,12.141 C61.644,11.458 60.839,10.913 59.915,10.507 C58.99,10.103 58.008,9.899 56.97,9.899 C55.931,9.899 54.95,10.103 54.025,10.507 C53.1,10.913 52.296,11.458 51.612,12.141 C50.928,12.825 50.383,13.63 49.978,14.555 C49.572,15.48 49.37,16.462 49.37,17.5 L49.37,27 L47.47,27 L47.47,17.5 C47.47,16.208 47.717,14.992 48.211,13.852 C48.705,12.711 49.375,11.705 50.225,10.831 C51.073,9.957 52.074,9.266 53.227,8.76 C54.379,8.253 55.627,7.999 56.97,7.999" id="Fill-1"></path>
                    <path d="M78.25,7.999 C79.567,7.999 80.809,8.247 81.974,8.741 C83.14,9.235 84.146,9.906 84.995,10.755 C85.844,11.604 86.516,12.611 87.009,13.776 C87.504,14.941 87.75,16.183 87.75,17.5 L87.75,27 L85.852,27 L85.852,23.2 C84.989,24.341 83.888,25.259 82.544,25.956 C81.201,26.652 79.77,27 78.25,27 C76.907,27 75.66,26.753 74.507,26.259 C73.354,25.766 72.353,25.094 71.505,24.245 C70.656,23.396 69.985,22.396 69.491,21.243 C68.997,20.091 68.75,18.843 68.75,17.5 C68.75,16.183 68.997,14.941 69.491,13.776 C69.985,12.611 70.656,11.604 71.505,10.755 C72.353,9.906 73.354,9.235 74.507,8.741 C75.66,8.247 76.907,7.999 78.25,7.999 M78.25,25.1 C79.288,25.1 80.27,24.899 81.196,24.494 C82.12,24.09 82.925,23.544 83.609,22.86 C84.292,22.174 84.837,21.372 85.242,20.446 C85.646,19.522 85.849,18.541 85.849,17.502 C85.849,16.464 85.646,15.482 85.242,14.557 C84.837,13.633 84.292,12.828 83.609,12.143 C82.925,11.46 82.12,10.915 81.196,10.51 C80.27,10.103 79.288,9.9 78.25,9.9 C77.211,9.9 76.23,10.103 75.305,10.508 C74.38,10.913 73.576,11.458 72.892,12.141 C72.208,12.826 71.662,13.631 71.258,14.555 C70.852,15.48 70.65,16.462 70.65,17.5 C70.65,18.539 70.852,19.521 71.258,20.445 C71.662,21.37 72.208,22.174 72.892,22.857 C73.576,23.542 74.38,24.086 75.305,24.492 C76.23,24.898 77.211,25.1 78.25,25.1" id="Fill-2"></path>
                    <path d="M99.915,7.999 C101.207,7.999 102.423,8.246 103.562,8.741 C104.704,9.234 105.708,9.906 106.583,10.755 C107.457,11.603 108.147,12.611 108.653,13.776 C109.161,14.941 109.415,16.183 109.415,17.5 L107.515,17.5 C107.515,16.462 107.312,15.48 106.908,14.555 C106.502,13.63 105.958,12.825 105.273,12.141 C104.588,11.458 103.785,10.913 102.861,10.507 C101.935,10.103 100.955,9.899 99.916,9.899 C98.877,9.899 97.895,10.103 96.971,10.507 C96.046,10.913 95.242,11.458 94.559,12.141 C93.874,12.825 93.33,13.63 92.924,14.555 C92.518,15.48 92.317,16.462 92.317,17.5 L92.317,27 L90.418,27 L90.418,17.5 C90.418,16.183 90.665,14.941 91.159,13.776 C91.653,12.611 92.323,11.603 93.173,10.755 C94.021,9.906 95.023,9.234 96.175,8.741 C97.324,8.246 98.572,7.999 99.915,7.999" id="Fill-3"></path>
                    <path d="M126.415,7.999 L126.415,17.5 C126.415,18.539 126.212,19.52 125.809,20.443 C125.403,21.369 124.858,22.172 124.174,22.857 C123.49,23.542 122.686,24.086 121.762,24.492 C120.835,24.896 119.854,25.099 118.817,25.099 L113.557,25.083 L113.557,7.999 L111.696,7.999 L111.696,27 L118.817,27 C120.108,27 121.325,26.753 122.464,26.259 C123.604,25.766 124.611,25.094 125.485,24.245 C126.36,23.396 127.049,22.396 127.555,21.243 C128.063,20.09 128.317,18.843 128.317,17.5 L128.317,7.999 L126.415,7.999" id="Fill-4"></path>
                    <path d="M140.096,7.999 C141.412,7.999 142.655,8.247 143.821,8.741 C144.985,9.235 145.993,9.906 146.842,10.755 C147.693,11.604 148.363,12.611 148.857,13.776 C149.351,14.941 149.597,16.183 149.597,17.5 L149.597,27 L147.699,27 L147.699,23.2 C146.838,24.341 145.734,25.259 144.392,25.956 C143.048,26.652 141.619,27 140.097,27 C138.754,27 137.506,26.753 136.353,26.259 C135.202,25.766 134.202,25.094 133.353,24.245 C132.503,23.396 131.832,22.396 131.338,21.243 C130.844,20.091 130.596,18.843 130.596,17.5 C130.596,16.183 130.844,14.941 131.338,13.776 C131.832,12.611 132.503,11.604 133.353,10.755 C134.202,9.906 135.202,9.235 136.353,8.741 C137.504,8.247 138.752,7.999 140.096,7.999 M140.096,25.1 C141.133,25.1 142.117,24.899 143.04,24.494 C143.965,24.09 144.769,23.544 145.453,22.86 C146.137,22.174 146.682,21.372 147.087,20.446 C147.492,19.522 147.695,18.541 147.695,17.502 C147.695,16.464 147.492,15.482 147.087,14.557 C146.682,13.633 146.137,12.828 145.453,12.143 C144.767,11.46 143.965,10.915 143.04,10.51 C142.115,10.105 141.133,9.902 140.096,9.902 C139.057,9.902 138.075,10.105 137.151,10.51 C136.225,10.915 135.422,11.46 134.737,12.143 C134.053,12.828 133.508,13.633 133.104,14.557 C132.699,15.482 132.496,16.464 132.496,17.502 C132.496,18.541 132.699,19.523 133.104,20.446 C133.508,21.372 134.053,22.175 134.737,22.86 C135.423,23.544 136.225,24.089 137.151,24.494 C138.074,24.898 139.057,25.1 140.096,25.1" id="Fill-5"></path>
                    <path d="M161.76,7.999 C163.052,7.999 164.268,8.246 165.407,8.741 C166.548,9.234 167.554,9.906 168.428,10.755 C169.302,11.603 169.993,12.611 170.5,13.776 C171.007,14.941 171.26,16.183 171.26,17.5 L169.362,17.5 C169.362,16.462 169.159,15.48 168.754,14.555 C168.349,13.63 167.804,12.825 167.12,12.141 C166.434,11.458 165.631,10.913 164.707,10.507 C163.782,10.103 162.8,9.899 161.762,9.899 C160.724,9.899 159.741,10.103 158.818,10.507 C157.892,10.913 157.089,11.458 156.404,12.141 C155.72,12.825 155.175,13.63 154.771,14.555 C154.365,15.48 154.163,16.462 154.163,17.5 L154.163,27 L152.264,27 L152.264,17.5 C152.264,16.183 152.51,14.941 153.004,13.776 C153.498,12.611 154.17,11.603 155.018,10.755 C155.868,9.906 156.87,9.234 158.02,8.741 C159.169,8.246 160.416,7.999 161.76,7.999" id="Fill-6"></path>
                    <path d="M17.73,0.509 C8.347,0.509 0.74,8.116 0.74,17.499 C0.74,26.883 8.347,34.489 17.73,34.489 C27.114,34.489 34.72,26.883 34.72,17.499 C34.72,8.116 27.114,0.509 17.73,0.509 M28.733,19.52 C27.726,21.903 25.343,23.637 22.737,23.747 C21.282,23.808 19.817,23.757 18.361,23.757 C17.958,23.757 17.63,23.414 17.63,23.015 L17.63,17.876 C17.63,17.485 17.648,17.089 17.627,16.698 C17.555,15.379 16.838,14.078 15.698,13.381 C14.535,12.671 13.04,12.452 11.781,13.072 C10.617,13.645 9.684,14.65 9.394,15.944 C9.274,16.474 9.286,17.002 9.286,17.541 L9.286,19.665 L9.286,23.026 C9.286,23.427 8.943,23.755 8.544,23.755 L7.317,23.755 C6.914,23.755 6.586,23.412 6.586,23.014 L6.586,19.75 C6.586,18.579 6.476,17.341 6.625,16.175 C6.974,13.446 8.894,10.969 11.615,10.255 C14.401,9.523 17.334,10.587 19.021,12.922 C19.856,14.078 20.33,15.457 20.33,16.888 L20.33,18.158 L20.33,21.047 C20.878,21.049 21.426,21.052 21.974,21.055 C22.692,21.057 23.406,21.02 24.064,20.699 C25.59,19.948 26.56,18.511 26.56,16.795 L26.56,11.727 C26.56,11.478 26.661,11.296 26.811,11.178 C26.928,11.067 27.092,10.996 27.301,10.996 L28.528,10.996 C28.931,10.996 29.26,11.338 29.26,11.737 L29.26,15.133 C29.26,16.627 29.331,18.104 28.733,19.52" id="Fill-7"></path>
                </g>
            </g>
        </g>
    </g>
</svg>