<?xml version="1.0" encoding="utf-8"?>
<!-- Generator: Adobe Illustrator 19.1.0, SVG Export Plug-In . SVG Version: 6.00 Build 0)  -->
<svg version="1.1" id="Layer_1" xmlns:sketch="http://www.bohemiancoding.com/sketch/ns"
	 xmlns="http://www.w3.org/2000/svg" xmlns:xlink="http://www.w3.org/1999/xlink" x="0px" y="0px" viewBox="-210.2 513.6 40 40"
	 style="enable-background:new -210.2 513.6 40 40;" xml:space="preserve">
<style type="text/css">
	.st0{fill:#2C3239;}
	.st1{fill:#FFFFFF;}
</style>
<path id="Imported-Layers_5_" sketch:type="MSShapeGroup" class="st0" d="M-190.2,514.8c10.4,0,18.8,8.4,18.8,18.8
	s-8.4,18.8-18.8,18.8S-209,544-209,533.6S-200.6,514.8-190.2,514.8 M-190.2,513.6c-11,0-20,9-20,20s9,20,20,20c11,0,20-9,20-20
	S-179.1,513.6-190.2,513.6"/>
<path class="st0" d="M-201.3,543.4c-1.1,0-1.6-0.8-1.1-1.8l11.2-20.9c0.5-1,1.4-1,1.9,0l11.2,20.9c0.5,1,0,1.8-1.1,1.8H-201.3z"/>
<g>
	<path class="st1" d="M-189.2,535.6h-2.1v-5.9h2.1V535.6z M-189.2,538.5h-2.1v-2h2.1V538.5z"/>
</g>
</svg>
