<?xml version="1.0" encoding="utf-8"?>
<!-- Generator: Adobe Illustrator 19.1.0, SVG Export Plug-In . SVG Version: 6.00 Build 0)  -->
<svg version="1.1" id="Layer_1" xmlns:sketch="http://www.bohemiancoding.com/sketch/ns"
	 xmlns="http://www.w3.org/2000/svg" xmlns:xlink="http://www.w3.org/1999/xlink" x="0px" y="0px" viewBox="-263.2 513.7 40 40"
	 style="enable-background:new -263.2 513.7 40 40;" xml:space="preserve">
<style type="text/css">
	.st0{fill:#2C3239;}
	.st1{fill:#FFFFFF;}
</style>
<path id="Imported-Layers_4_" sketch:type="MSShapeGroup" class="st0" d="M-243.2,514.8c10.4,0,18.8,8.4,18.8,18.8
	s-8.4,18.8-18.8,18.8S-262,544-262,533.6S-253.6,514.8-243.2,514.8 M-243.2,513.6c-11,0-20,9-20,20s9,20,20,20s20-9,20-20
	S-232.2,513.6-243.2,513.6"/>
<g id="Imported-Layers-Copy_1_" transform="translate(112.000000, 26.000000)" sketch:type="MSLayerGroup">
	<path id="Fill-1_2_" sketch:type="MSShapeGroup" class="st0" d="M-346.5,512.9c0.7,0,1.3,0.6,1.3,1.3c0,0.7-0.6,1.3-1.3,1.3
		c-0.7,0-1.3-0.6-1.3-1.3C-347.8,513.5-347.2,512.9-346.5,512.9 M-346.5,511.6c-1.4,0-2.6,1.2-2.6,2.6c0,1.4,1.2,2.6,2.6,2.6
		c1.4,0,2.6-1.2,2.6-2.6C-343.9,512.8-345.1,511.6-346.5,511.6"/>
	<path id="Fill-2_2_" sketch:type="MSShapeGroup" class="st0" d="M-360.9,512.9c0.7,0,1.3,0.6,1.3,1.3c0,0.7-0.6,1.3-1.3,1.3
		c-0.7,0-1.3-0.6-1.3-1.3C-362.2,513.5-361.6,512.9-360.9,512.9 M-360.9,511.6c-1.4,0-2.6,1.2-2.6,2.6c0,1.4,1.2,2.6,2.6,2.6
		c1.4,0,2.6-1.2,2.6-2.6C-358.3,512.8-359.5,511.6-360.9,511.6"/>
	<path id="Fill-3_2_" sketch:type="MSShapeGroup" class="st0" d="M-367.3,501.3V513c0,0.3,0.3,0.6,0.6,0.6h2.7
		c0.3-1.5,1.6-2.6,3.2-2.6c1.6,0,2.9,1.1,3.2,2.6h8V502c0-0.7-0.6-1.3-1.3-1.3h-15.7C-367,500.7-367.3,500.9-367.3,501.3"/>
	<path id="Fill-4" sketch:type="MSShapeGroup" class="st0" d="M-344,505c-0.2-0.3-0.6-0.5-0.9-0.5h-4.3v7.9c0.6-0.9,1.6-1.4,2.7-1.4
		c1.6,0,2.9,1.1,3.2,2.6h0.7c0.2,0,0.3-0.2,0.3-0.3v-4.6C-342.2,508.6-342.7,506.6-344,505L-344,505L-344,505z M-347.8,507.4v-2h3.1
		c0.6,0.6,1.2,2,1.2,2H-347.8L-347.8,507.4z"/>
</g>
</svg>
