<?xml version="1.0" encoding="utf-8"?>
<!-- Generator: Adobe Illustrator 19.1.0, SVG Export Plug-In . SVG Version: 6.00 Build 0)  -->
<svg version="1.1" id="Layer_1" xmlns:sketch="http://www.bohemiancoding.com/sketch/ns"
	 xmlns="http://www.w3.org/2000/svg" xmlns:xlink="http://www.w3.org/1999/xlink" x="0px" y="0px" viewBox="-314.1 513.7 40 40"
	 style="enable-background:new -314.1 513.7 40 40;" xml:space="preserve">
<style type="text/css">
	.st0{fill:#2C3239;}
	.st1{fill:#FFFFFF;}
</style>
<path id="Imported-Layers_2_" sketch:type="MSShapeGroup" class="st0" d="M-294.1,514.9c10.4,0,18.8,8.4,18.8,18.8
	s-8.4,18.8-18.8,18.8s-18.8-8.4-18.8-18.8S-304.4,514.9-294.1,514.9 M-294.1,513.7c-11,0-20,9-20,20s9,20,20,20s20-9,20-20
	S-283,513.7-294.1,513.7"/>
<path id="Imported-Layers-Copy" sketch:type="MSShapeGroup" class="st0" d="M-282.6,542.2c0,0,0-1.6,0-1.8v-11.9
	c0-0.2-0.1-0.4-0.2-0.6l0,0v0h0l-2.2-3.9c-0.2-0.3-0.5-0.4-0.8-0.4H-301c-0.3,0-0.6,0.1-0.8,0.4l-2.4,4c-0.1,0.2-0.2,0.4-0.2,0.6
	v13.6 M-300.8,524.8h14.9l0.5,0.9h-15.9L-300.8,524.8L-300.8,524.8z M-295.8,539.5l-4.1-3.9l1.2-1.3l2.8,2.6l6.2-7.1l1.3,1.2
	L-295.8,539.5L-295.8,539.5z M-302.7,527.8l0.7-1.2h16.9v-0.3l0.8,1.5H-302.7L-302.7,527.8z"/>
</svg>
